<svg version="1.1" id="Layer_1" xmlns="http://www.w3.org/2000/svg" xmlns:xlink="http://www.w3.org/1999/xlink" x="0" y="0" viewBox="0 0 450 342" xml:space="preserve"><style>.st0{opacity:.25}.st2{fill:#fff}.st3{fill:#b28aff}.st4{fill:#efa630}.st5{fill:#f3b74e}.st7{clip-path:url(#SVGID_1_);fill:#a58fd7}.st8{fill:#967de2}.st14{fill:#bb91f9}.st16{opacity:.53}</style><g><g><g class="st0"><g><path d="M408 226.4l.3-1.2c1-3.8 1.7-7.7 2.2-11.5 4.6-.7 10.4-2 14.9-3.3l.6-6.6v-6.6c-3.5-1.3-7.8-2.8-11.6-3.8-1-.3-2-.5-2.9-.7-.3-4.3-.8-8.6-1.6-12.8 4.1-2.1 9.3-5.1 13.2-7.8l-.7-3.2c-.2-1.1-.6-2.1-.9-3.2l-2-6.3c-3.6-.2-8.2-.2-12.3 0-1.1.1-2.1.1-3 .2-1.6-4-3.4-8-5.4-11.8 3.3-3.2 7.3-7.8 10.2-11.5-2.3-3.7-4.8-7.4-7.3-10.9-4.5 1.3-10.3 3.2-14.5 5-2.7-3.3-5.7-6.5-8.8-9.5.5-.8.9-1.7 1.4-2.7 1.8-3.7 3.5-7.9 4.7-11.4l-5.1-4.2c-.9-.7-1.7-1.4-2.6-2.1l-2.7-1.9c-3.9 2.6-8.8 6.2-12.2 9.2-3.6-2.3-7.4-4.4-11.3-6.3.2-1 .3-2 .5-3 .5-4 .8-8.5.9-12.2l-6.1-2.5c-2-.8-4.2-1.3-6.3-2-2.9 3.7-6.4 8.6-8.8 12.5l-1.2-.3c-3.8-1-7.7-1.7-11.5-2.2-.7-4.6-2-10.4-3.3-14.9l-6.6-.6h-6.6c-1.3 3.5-2.8 7.8-3.8 11.6-.3 1-.5 2-.7 2.9-4.3.3-8.6.8-12.8 1.6-2.1-4.1-5.1-9.3-7.8-13.2l-3.2.7c-1.1.2-2.1.6-3.2.9l-6.3 2c-.2 3.6-.2 8.2 0 12.3.1 1.1.1 2.1.2 3-4 1.6-8 3.4-11.8 5.4-3.2-3.3-7.8-7.3-11.5-10.2-3.7 2.3-7.4 4.8-10.9 7.3 1.3 4.5 3.2 10.3 5 14.5-3.3 2.7-6.5 5.7-9.5 8.8-.8-.5-1.7-.9-2.7-1.4-3.7-1.8-7.9-3.5-11.4-4.7l-4.2 5.1c-.7.9-1.4 1.7-2.1 2.6l-1.9 2.7c2.6 3.9 6.2 8.8 9.2 12.2-2.3 3.6-4.4 7.4-6.3 11.3-1-.2-2-.3-3-.5-4-.5-8.5-.8-12.2-.9l-2.5 6.1c-.8 2-1.3 4.2-2 6.3 3.7 2.9 8.6 6.4 12.5 8.8l-.3 1.2c-1 3.8-1.7 7.7-2.2 11.5-4.6.7-10.4 2-14.9 3.3l-.6 6.6v6.6c3.5 1.3 7.8 2.8 11.6 3.8 1 .3 2 .5 2.9.7.3 4.3.8 8.6 1.6 12.8-4.1 2.1-9.3 5.1-13.2 7.8l.7 3.2c.2 1.1.6 2.1.9 3.2l2 6.3c3.6.2 8.2.2 12.3 0 1.1-.1 2.1-.1 3-.2 1.6 4 3.4 8 5.4 11.8-3.3 3.2-7.3 7.8-10.2 11.5 2.3 3.7 4.8 7.4 7.3 10.9 4.5-1.3 10.3-3.2 14.5-5 2.7 3.3 5.7 6.5 8.8 9.5-.5.8-.9 1.7-1.4 2.7-1.8 3.7-3.5 7.9-4.7 11.4l5.1 4.2c.9.7 1.7 1.4 2.6 2.1l2.7 1.9c3.9-2.6 8.8-6.2 12.2-9.2 3.6 2.3 7.4 4.4 11.3 6.3-.2 1-.3 2-.5 3-.5 4-.8 8.5-.9 12.2l6.1 2.5c2 .8 4.2 1.3 6.3 2 2.9-3.7 6.4-8.6 8.8-12.5l1.2.3c3.8 1 7.7 1.7 11.5 2.2.7 4.6 2 10.4 3.3 14.9l6.6.6h6.6c1.3-3.5 2.8-7.8 3.8-11.6.3-1 .5-2 .7-2.9 4.3-.3 8.6-.8 12.8-1.6 2.1 4.1 5.1 9.3 7.8 13.2l3.2-.7c1.1-.2 2.1-.6 3.2-.9l6.3-2c.2-3.6.2-8.2 0-12.3-.1-1.1-.1-2.1-.2-3 4-1.6 8-3.4 11.8-5.4 3.2 3.3 7.8 7.3 11.5 10.2 3.7-2.3 7.4-4.8 10.9-7.3-1.3-4.5-3.2-10.3-5-14.5 3.3-2.7 6.5-5.7 9.5-8.8.8.5 1.7.9 2.7 1.4 3.7 1.8 7.9 3.5 11.4 4.7l4.2-5.1c.7-.9 1.4-1.7 2.1-2.6l1.9-2.7c-2.6-3.9-6.2-8.8-9.2-12.2 2.3-3.6 4.4-7.4 6.3-11.3 1 .2 2 .3 3 .5 4 .5 8.5.8 12.2.9l2.5-6.1c.8-2 1.3-4.2 2-6.3-3.6-2.9-8.5-6.4-12.5-8.8z" fill="#a399ff"/></g></g><g><g><path class="st2" d="M282.3 138.3c1.5 2.3 3 4.7 4.5 7 1.7 2.2 3.4 4.4 5.2 6.5 4-1.3 8.8-3.1 12.8-5.1 1-.5 2-1 2.9-1.6 4.2 4.1 8.9 7.5 14 10.3-.2 1-.4 2.1-.6 3.3-.8 4.5-1 9.5-1 13.6l3.8 1.7c1.3.5 2.6.9 3.9 1.3l3.9 1.3 4 .9c2.5-3.3 5.3-7.5 7.3-11.6l1.5-3c5.7.8 11.5.8 17.3.1.4 1 .9 2 1.4 3 2 4 4.8 8.3 7.2 11.7 2.7-.6 5.4-1.4 8-2.1 2.6-.9 5.2-1.9 7.8-2.9 0-4.1-.2-9.3-.9-13.7l-.6-3.3c5.2-2.8 10-6.2 14.1-10.1.9.5 1.9 1.1 2.9 1.6 3.9 2 8.8 4 12.7 5.2 3.7-4.1 7-8.6 9.8-13.4-2.4-3.4-5.6-7.4-8.7-10.5-.8-.8-1.6-1.6-2.4-2.3 2.5-5.2 4.4-10.7 5.5-16.5 1.1-.1 2.2-.2 3.4-.4 4.4-.7 9.3-2 13.3-3.2.6-5.5.6-11.1.1-16.6-3.8-1.3-8.9-2.7-13.3-3.4-1.1-.2-2.2-.3-3.3-.5-.9-5.1-2.5-10.3-4.7-15.2-.2-.4-.4-.9-.6-1.3.8-.7 1.6-1.5 2.4-2.3 3.2-3.1 6.4-7.1 8.9-10.5-1.5-2.3-3-4.7-4.5-7-1.7-2.2-3.4-4.4-5.2-6.5-4 1.3-8.8 3.1-12.8 5.1-1 .5-2 1-2.9 1.6-4.2-4.1-8.9-7.5-14-10.3.2-1 .4-2.1.6-3.3.8-4.5 1-9.5 1-13.6l-3.8-1.7c-1.3-.5-2.6-.9-3.9-1.3l-3.9-1.3-4-.9c-2.5 3.3-5.3 7.5-7.3 11.6l-1.5 3c-5.7-.8-11.5-.8-17.3-.1-.4-1-.9-2-1.4-3-2-4-4.8-8.3-7.2-11.7-2.7.6-5.4 1.4-8 2.1-2.6.9-5.2 1.9-7.8 2.9 0 4.1.2 9.3.9 13.7l.6 3.3c-5.2 2.8-10 6.2-14.1 10.1-.9-.5-1.9-1.1-2.9-1.6-3.9-2-8.8-4-12.7-5.2-3.7 4.1-7 8.6-9.8 13.4 2.4 3.4 5.6 7.4 8.7 10.5.8.8 1.6 1.6 2.4 2.3-2.5 5.2-4.4 10.7-5.5 16.5-1.1.1-2.2.2-3.4.4-4.4.7-9.3 2-13.3 3.2-.6 5.5-.6 11.1-.1 16.6 3.8 1.3 8.9 2.7 13.3 3.4 1.1.2 2.2.3 3.3.5.9 5.1 2.5 10.3 4.7 15.2.2.4.4.9.6 1.3-.8.7-1.6 1.5-2.4 2.3-3.1 3.2-6.4 7.2-8.9 10.5zm32.3-23.1c-9.8-21.5-.3-46.9 21.2-56.8s46.9-.3 56.8 21.2c9.8 21.5.3 46.9-21.2 56.8-21.5 9.8-46.9.3-56.8-21.2z"/></g></g><g class="st0"><g><g><path class="st3" d="M163.1 215.4c-1.1-.6-2.2-1.1-3.2-1.6.1-.5.2-1 .2-1.5.8-5.8.8-11.6.1-17.2 1-.4 2.1-.9 3.3-1.5 4.3-2.1 9.2-5.1 12.7-7.6-1.2-5.9-2.9-11.6-5.2-17.1-4.5-.1-10 .1-14.7.7-1.3.2-2.5.4-3.6.6-2.9-5.6-6.5-10.7-10.7-15.4.6-1 1.2-2.1 1.8-3.2 2.2-4.2 4.3-9.3 5.8-13.6-4.4-4.1-9.2-7.7-14.3-10.8-3.6 2.4-8.1 6-11.5 9.3l-2.5 2.5c-5.5-2.8-11.4-4.8-17.7-6.1-.1-1.1-.2-2.3-.4-3.6-.7-4.7-2-10.2-3.3-14.5-3-.2-5.9-.5-8.9-.6-3 .1-6 .1-9 .3-1.5 4.3-3 9.6-3.9 14.3l-.6 3.6c-6.3 1-12.3 2.9-17.9 5.5-.7-.9-1.6-1.7-2.4-2.7-3.4-3.6-7.6-7-11.2-9.7l-3.9 2.2-3.7 2.5c-1.2.9-2.5 1.7-3.6 2.6l-3.4 2.9c1.3 4.3 3.1 9.4 5.3 13.8.5 1.1 1.1 2.2 1.6 3.2-4.4 4.4-8.2 9.4-11.3 14.9-1.1-.3-2.3-.5-3.5-.7-4.7-.8-10.3-1.2-14.8-1.3-1.2 2.7-2.3 5.5-3.4 8.3-.9 2.9-1.7 5.7-2.5 8.6 3.6 2.7 8.3 5.8 12.5 8.1 1.1.6 2.2 1.1 3.2 1.6-.1.5-.2 1-.2 1.5-.8 5.8-.8 11.6-.1 17.2-1 .4-2.1.9-3.3 1.5-4.3 2.1-9.2 5.1-12.7 7.6 1.2 5.9 2.9 11.6 5.2 17.1 4.5.1 10-.1 14.7-.7 1.3-.2 2.5-.4 3.6-.6 2.9 5.6 6.5 10.7 10.7 15.4-.6 1-1.2 2.1-1.8 3.2-2.2 4.2-4.3 9.3-5.8 13.6 4.4 4.1 9.2 7.7 14.3 10.8 3.6-2.4 8.1-6 11.5-9.3l2.5-2.5c5.5 2.8 11.4 4.8 17.7 6.1.1 1.1.2 2.3.4 3.6.7 4.7 2 10.2 3.3 14.5 3 .2 5.9.5 8.9.6 3-.1 6-.1 9-.3 1.5-4.3 3-9.6 3.9-14.3l.6-3.6c6.3-1 12.3-2.9 17.9-5.5.7.9 1.6 1.7 2.4 2.7 3.4 3.6 7.6 7 11.2 9.7l3.9-2.2 3.7-2.5c1.2-.9 2.5-1.7 3.6-2.6l3.4-2.9c-1.3-4.3-3.1-9.4-5.3-13.8-.5-1.1-1.1-2.2-1.6-3.2 4.4-4.4 8.2-9.4 11.3-14.9 1.1.3 2.3.5 3.5.7 4.7.8 10.3 1.2 14.8 1.3 1.2-2.7 2.3-5.5 3.4-8.3.9-2.9 1.7-5.7 2.5-8.6-3.7-2.7-8.3-5.8-12.5-8.1z"/></g></g></g><g><path class="st4" d="M393.3 216.3c-9.3-3.6-22.3 15-32.3 15-4 0-20.4-4.4-20.4-4.4-2.9 1.2-10.8 3.7-10.8 3.7l37.4 16.3 9-15.7 17.1-14.9z"/></g><g><path class="st2" d="M330.3 227.3l-11.6 8.5 19.1-4.2 2.8-4.8z"/></g><g><path class="st5" d="M388.1 222.6c-3.2-3.5-18.1 19.5-18.1 19.5s-3.9 17.4-4.3 25.1c-.5 9.8 25 7.2 25 7.2l.7-8.1-1.2-6c-.5-2.4-.1-4.8 1-7 2.8-5.4 8.1-16 9.3-19.9 1.8-5.7-1.7-13.8-1.7-13.8-1.4-1-3.1-2.1-5.5-3.2-4.9-2.6-5.2 6.2-5.2 6.2z"/></g><g><path class="st4" d="M390.7 224.8c5.7-8 3.1-6.9-2.6-10.3-1.4.4-5.1 3.2-9.3 6.5-12.2 9.7-13.7 42.4-13.2 46.1l11.2 2.4s1.7-14.3 2.8-18.3c1.2-3.9 8.5-22.7 11.1-26.4z"/></g><path class="st2" d="M390.3 223.8c-2.1 1.2-6.4.8-8-.9l-2.4-9.6 9.5-5.4s1.3 6 3 7.9c3 3.3 1.8 5.8-2.1 8z"/><g><path class="st5" d="M337.8 231.6s-4.1-.7-4.1 3.5c3.1 5.3 31.7 14.6 31.7 14.6s34.5-11.7 35.1-16.5c.6-4.8.7-11.4-2-13.4-8.8-6.3-25 14.3-35.8 14.7-5.7.2-16.8-3.1-22-4.6l-2.9 1.7z"/></g><g><path class="st3" d="M439.8 319.4s-16.8-13-19.2-15c-2.4-2-5.4-2.7-5.4-2.7l-23.8-35.5c-.9 3.2-7.8 3.5-11.1 3.3-3.3-.2-10.6.4-14.6-2.4l-23.9 17.4c-4.8 5.1-3.4 12 0 15.7 3.4 3.8 18.4 29.4 18.4 29.4l-10.8 4.1v4.1l23.1-.7-12.3-41 16.2-8.1c6.6 4.9 26.9 25 31.3 26.7 10.9 4.1 27.4 12.9 27.4 12.9l-.8 7.5-3.1 2.8-.6 2.6h8.9l8.6-17.1-8.3-4z"/></g><g opacity=".41"><g><defs><path id="SVGID_15_" d="M371.8 285.7l-10.2-14s-22.8 12.8-22.6 19.9c0 .6-.2 1.2-.3 1.9.3 2.6 1.4 5 3 6.7 3.4 3.8 18.4 29.4 18.4 29.4l-10.8 4.1v4.1h23.1l-12.3-41.7 16.2-8.1-4.5-2.3z"/></defs><clipPath id="SVGID_1_"><use xlink:href="#SVGID_15_" overflow="visible"/></clipPath><path class="st7" d="M362.8 268.5l-24.1 6.6v-6.6z"/><path class="st7" d="M372.4 268.5l4 14.4v54.9H348l-9.3-33.6v-29.1l24.1-6.6z"/></g></g><g><g><path class="st2" d="M374.3 197.4c-3.4 1.7-1.1 16.1.1 19.4 1.8 5.2 16.7-2 18.6-12 .8-4.4 3.7-8.1-.2-11.1-3.8-3-14.1-1.9-18.5 3.7z"/></g><g><path class="st8" d="M397.5 192.1c-2.5-2.9-7.7-7.3-12-6.5-4.3.8-8.8-4.1-12.7-2.4-3.6.5-5.1 7.5-4.3 10.7.7 2.7 3.6 3.6 5.3 3.9.8.2 2.4.3 4 .3 2.4.1 4.8-.5 6.9-1.7 1.9-1.1 3.7-2.1 4.9-1.8-5.7 3.4-4.2 9.1-4.2 9.1l3.1-.5s1.2.1 1.6 1.5l2.6-1s-6.4 5.3-4.2 9.4c.8 1.5 5.1-1.6 5.4-4.4.4-3.8 3-6.7 3-6.7s3.1-7 .6-9.9z"/></g><g><path class="st2" d="M383.9 205.1c3.7-4.5 6.4-3.3 7.2-2.7 2.7 2.2.5 8.6-6.7 8-4.4-.4-.5-5.3-.5-5.3z"/></g></g><g><path class="st3" d="M189.4 342c-.8 0-1.6-.2-2.3-.7-1.7-1.1-2.5-3.1-1.9-5l27.3-91.6 8.5 2.5-22.7 76 83.7-77.5 6 6.5-95.6 88.6c-.8.8-1.9 1.2-3 1.2z"/></g><g><path class="st3" d="M310.4 342c-1.1 0-2.2-.4-3-1.2l-95.6-88.6 6-6.5 83.7 77.5-22.7-76 8.5-2.5 27.3 91.6c.6 1.9-.2 4-1.9 5-.6.5-1.5.7-2.3.7z"/></g><g><path d="M345.1 251.1H152.8c-3.2 0-5.8-2.6-5.8-5.8 0-3.2 2.6-5.8 5.8-5.8h192.4c3.2 0 5.8 2.6 5.8 5.8-.1 3.2-2.7 5.8-5.9 5.8z" fill="#c0a6ff"/></g><path class="st2" d="M154.1 228s-1.9 4.7-.8 5.4c1.1.7 4.2 1.4 6.9 1.7 3.2.3 6.3 1 8.3 1.4.5.1.8-.6.3-.8-3-1.9-6.9-5.8-6.9-5.8l-7.8-1.9z"/><g><g><path class="st8" d="M103.7 204.9c9.9 0 17.5 15.4 25.4 19.8 6.1 3.5 26 3.5 26 3.5l-.1 6.8-34.6.1-16.7-30.2z"/></g><g><g><path class="st8" d="M97.2 208.1c12.6-4.8 16 1.8 19.1 5.8 3.4 4.4 14.5 14.1 15.7 41.1-4.7 15-25.2-.8-25.2-.8s-2.6-10-6.8-19.8c-1.6-3.6-3.5-3.6-5.2-6.5-3.2-5.3-2.9-12 .6-17.1l1.8-2.7z"/></g><g><g><path class="st2" d="M106.6 183.2c9.5 2.7 12.5 8.5 12.9 14.5.3 6 1.4 9.4-2.7 10.7-8.3 2.6-16.6-4.6-19.3-12.7-5.4-16.2 9.1-12.5 9.1-12.5z"/></g><path class="st2" d="M104.5 198.8l-8.2 11.3 9.8 1.3c2.4.9 5-2 5.8-4.4l-1.1-1.4-6.3-6.8z"/><g><path d="M101.5 184s12.7 8.5 22 4.8c3.4-3.4-2.5-4.5-2.5-4.5s1.3-4.2-1.5-5.4c-.5-.2-2.1 1-2.1 1s-3.1-1.2-4.2-2.6c-1.1-1.4-5.7-1.8-6.3-1.6s-5.7 2-6.2 3.8c-2.3-.4-3.9-1.5-6 1.6s-5.9 8.9-4.5 13.4 7.1 5.9 7.1 5.9.9 5.3 3.8 5c2.9-.3 2.5-2.4 2.4-5.1s4.3-5.3 2.7-9.5c-1.7-2.3-5.3-4.4-4.7-6.8z" fill="#ff8b6c"/></g><g><path class="st2" d="M106.4 193.7c-3.1-3.5-6.1-5.1-7.3-1.5-1.6 4.6 3.6 8.2 5.4 6.6 1.8-1.6 1.9-5.1 1.9-5.1z"/></g></g><g><path d="M112.9 275c9.2 3.6 33.5 5.3 33.5 5.3s-10.4 24.2-9.6 29.7c.3.3 19.3 1.5 19.3 1.5V307l-7.4-3.7 19.6-28.4c1-1.4.1-3.4-1.7-3.4l-35.7-8.1-18 11.6z" fill="#db9242"/></g><g opacity=".22"><g><path fill="#c76928" d="M153 276l-23.5-12.7 23.5 1.8z"/></g></g><g><path class="st5" d="M170.2 271.9c0-8.4-37.9-13.9-37.9-13.9l-.4-3c-12.2 4.2-25.2-.8-25.2-.8-.5 7.5 0 20.5 6.1 24.3 4.2 2.6 33.5 1.5 33.5 1.5-4.8 7.3-13.2 22.1-16.9 28.7-.8 1.5.2 3.3 2 3.3h21.4v-4.8l-9.6-3.6c.1-.1 27-28.2 27-31.7z"/></g><path class="st2" d="M170.4 236.6c-1.4 1.2-7.6 0-9.5.1-4.1.2-7.5.2-7.5.2l.4-5.7-.4-1.2 6.9.9s6.6 2.9 9.6 4.5c.6.3 1.1.7.5 1.2z"/><g><path class="st3" d="M102.8 209.5c-9.6-5.7-11.2 12.5-11.1 13.7.9 6.4 28.9 17.5 28.9 17.5s23.4-2.3 32.7-3.8c3.1-3.8 1.4-6.9 1.4-6.9s-25.2-.6-27.9-2.1c-5.3-2.9-19.4-15.7-24-18.4z"/></g></g></g><g><path class="st2" d="M340.6 230l-12-.6-12 6.7s14.5-.3 15.4 0c1.7 1.7 3.5.9 3.5.9l5.1-7z"/></g><path class="st3" d="M290.8 235.8H332v3.6h-41.2z"/><path class="st3" d="M275.4 205.8l15.7 33.6 3.3-.9-15.7-33.6z"/></g><g><g><path class="st14" d="M341.1 38.1c-1.7 0-3.2.7-4.4 1.7-6.6-1.4-17.9.4-33.8 5.1-6.5 2-13.6 4.4-21 7.2 1-3 2-5.9 2.8-8.7 5-17 5-27-.1-29.7-8.3-4.4-25.1 14.6-41.5 40.5-30.4-29.2-61-51-69.9-42.8-8.9 8.3 10.6 40.7 37.6 73.5-22.3 12-42.2 24.5-57.1 35.8-10.6 8-17.8 14.8-21.7 20.3-.4 0-.7-.1-1.1-.1-5.7 0-10.4 4.6-10.4 10.4 0 5.7 4.6 10.4 10.4 10.4 3.8 0 7.2-2.1 8.9-5.2h.4c6.7 0 16.3-1.9 28.8-5.6 10.4-3.1 22.1-7.4 34.6-12.6-4 14.5-4.5 25.2.6 27.9.8.4 1.7.6 2.6.6 9.1 0 24.7-18.6 39.8-42.7 27.8 27.5 56.8 50 70.3 50 2.1 0 3.9-.6 5.2-1.8 5-4.7 1.7-16.7-10.1-35.8-7.2-11.7-16.9-24.9-28.3-38.7 13.1-7.9 24.9-15.7 34.5-23 13.3-10 21.3-18.2 24.1-24.3 3-.6 5.2-3.2 5.2-6.3.1-3.3-2.8-6.1-6.4-6.1zm-59.4-21.2c.4 0 .8.1 1.1.2 2.3 1.2 3.1 8.5-1.8 25.3-1.1 3.6-2.3 7.5-3.8 11.5-6.8 2.6-13.8 5.6-21.1 8.8l-7.1-4c-.6-.3-1.2-.4-1.8-.3-.5-.4-.9-.9-1.4-1.3 16.6-26.1 30.5-40.2 35.9-40.2zm-12.8 52.9c.8-.3 1.5-.5 2.3-.7-.2.5-.5 1.1-.7 1.6l-1.6-.9zm-47.2 22.3c-.3-.4-.7-.8-1-1.2.3-.2.7-.4 1-.6.1.6.1 1.2 0 1.8zm15.8-28.5L223 71.7c-1.1.6-1.5 1.3-1.5 2.9v2.5c0 .7.1 1.4.1 2.2l-1.2.6c-12.6-16.5-17.8-29.9-14-33.5 3.7-3.5 16.6 2 32.3 15-.4.7-.8 1.5-1.2 2.2zm-17.4 20.8c.5.6 1.1 1.2 1.6 1.8 0 0 .1.5.1 1.1l-2.9 1.6c-.8-.9-1.5-1.8-2.2-2.7 1.1-.7 2.3-1.3 3.4-1.8zm.1 11.7c-4.1 8.6-7.8 17.2-10.9 25.2-3 1-5.9 1.9-8.6 2.7-14.3 4-21 3.5-22.5 1.7-.2-.3-.4-.7-.3-1.7 1.2-5.4 15.2-17.6 39.4-31.2 1 1.1 1.9 2.2 2.9 3.3zm1.4 6c0 1.6.3 2.9 1.3 3.5l10.6 6c-6.7 3.1-13.3 5.7-19.5 8 2.2-5.4 4.7-11.3 7.6-17.5zm-1.8 18.3c4.9-1.9 14.3-6.1 16.2-6.9 1.3 1.4 2.6 2.7 4 4.1a506.6 506.6 0 01-30.4 14.1c.9-2.7 1.9-5.6 3.1-8.7 2.4-.8 4.7-1.6 7.1-2.6zm52.3-14.8c.7-.4 1-.8 1.2-1.4.7-.4 1.5-.8 2.2-1.3 6.6 11 8.8 19.2 6 21.9-2.4 2.3-8.9.7-17.4-4.3-2.7-1.6-5.5-3.5-8.4-5.7l16.4-9.2zm1.4-5.9zm-.2-6.3v-.2l.9-.6c1.3 1.5 2.6 3 3.8 4.5-.5.3-1.1.6-1.6 1-1-1.6-2.1-3.1-3.1-4.7zm0-7.5c0-3.2.1-6.2.1-8.6 0-1.3.1-2.5-.1-3.5.9-2 1.7-4 2.6-6 13.2-3.6 19.5-3.1 20.9-1.3.2.3.5.8.3 1.7-.8 3.9-8.4 11.3-21.6 20.2-.7-.8-1.4-1.7-2.2-2.5zM265.6 68l-5.3-3c5.2-2.3 10.3-4.4 15.2-6.3-.9 2.3-1.9 4.7-2.9 7.2-2.2.6-4.6 1.3-7 2.1zm-89.8-53.7c.7-.6 1.7-.9 3-.9 9.2 0 33.3 16.1 62.4 44.2-.2.3-.4.6-.6 1C225.3 46 210.2 38.2 204.1 44c-6.1 5.9 1.3 21.5 13.3 37.5-1.1.6-2.2 1.2-3.3 1.7-29.5-35.7-44-63.7-38.3-68.9zm-7.9 133c-12.5 3.7-21.2 5.2-26.8 5.4.1-.4.1-.9.1-1.3 0-3.9-2.2-7.3-5.4-9.1 3.5-4.5 9.8-10.6 20.2-18.5 14.9-11.3 34.9-23.8 57.3-35.8.7.9 1.5 1.8 2.2 2.7l-1.1.6c-22.3 12.6-37.8 25.1-39.3 32.2-.4 2 .2 3.3.8 4 1.3 1.7 4 2.4 7.7 2.4 6 0 14.6-2 24.3-5.2-1.1 3.1-2.2 6.2-3.1 9.1-13.2 5.6-25.8 10.2-36.9 13.5zM206 163c-3-1.6-2.4-11.2 2.2-26.5 11.1-4.7 22.8-10.1 34.6-16.1l1.1 1.1c-18.1 29.1-33.4 43.8-37.9 41.5zm102.9-24.3c11.8 19.2 13.3 28.6 10.7 31-5.9 5.5-35.2-13.1-70.9-48.7.7-1.2 1.4-2.3 2.1-3.5l1.6-.9c3.4 2.6 6.8 4.9 10 6.7 6.5 3.9 11.9 5.8 15.9 5.8 2.3 0 4.1-.7 5.5-2 4.6-4.4 1.6-14.4-5.4-25.9l2.1-1.2c11.4 13.7 21.2 27 28.4 38.7zm7.1-66.6c-9.7 7.3-21.5 15.2-34.7 23-1.3-1.5-2.6-3.1-3.9-4.6 12.9-8.7 21.3-16.7 22.5-21.8.5-1.8-.2-3.2-.8-3.9-2.7-3.4-10.9-3-21.8-.2 1.1-2.6 2.1-5.2 3-7.8 8.4-3.3 16.5-6.1 23.8-8.3 13.2-4 22.2-5.4 27.9-5.4 1.1 0 2 .1 2.9.2-.1.4-.1.8-.1 1.2 0 2.6 1.5 4.8 3.7 5.8-2.7 4.6-9.4 11.8-22.5 21.8z"/><circle class="st14" cx="334.7" cy="102.4" r="10.4"/><circle class="st14" cx="244.4" cy="15.6" r="12.5"/><circle class="st14" cx="95.4" cy="77" r="20.9"/><circle class="st14" cx="195.4" cy="183.1" r="7.8"/><circle class="st14" cx="167.3" cy="77" r="7.8"/></g></g><path class="st3" d="M233.1 222.6h32.1v17.3h-32.1z"/><path class="st8" d="M107.4 278.5h32.9v8.7h-32.9zm-10 32.6h52.9v4.3H97.4z"/><path class="st8" d="M121.3 282h5.2v55.5h-5.2z"/><path class="st3" d="M151.6 236h39.9v3.5h-39.9z"/><path transform="rotate(-52.574 200.633 224.597)" class="st3" d="M183.3 222.9H218v3.5h-34.7z"/><linearGradient id="SVGID_2_" gradientUnits="userSpaceOnUse" x1="249.112" y1="223.338" x2="249.112" y2="57.939"><stop offset="0" stop-color="#fff"/><stop offset="1" stop-color="#fff" stop-opacity="0"/></linearGradient><path fill="url(#SVGID_2_)" d="M311.3 58.4H187l49.3 164.5h25.6z"/><g class="st16"><path class="st2" d="M233.1 227.6h32.1v1.7h-32.1z"/></g><g class="st16"><path class="st2" d="M233.1 234.4h32.1v1.7h-32.1z"/></g></g></svg>