<svg version="1.1" id="Layer_1" xmlns="http://www.w3.org/2000/svg" xmlns:xlink="http://www.w3.org/1999/xlink" x="0" y="0" viewBox="0 0 630 302" xml:space="preserve"><style>.st2{fill:#b28aff}.st3{fill:#fff}.st10{opacity:.26}.st14{opacity:.59}.st16{fill:#a758ff}.st19{fill:#d4c2ff}.st20{fill:#967de2}.st21{fill:#ff8b6c}.st22{fill:#ffac6e}</style><g><g><path d="M22.7.6c19 51.2 58.5 90.3 118.1 82.9 120-14.9 113.2 116.1 281.6 116.1 151.8 0 185-199 185-199H22.7z" opacity=".2" fill="#a399ff"/></g><g opacity=".33"><path class="st2" d="M574.7 30.6c.6-5.3.6-10.7-.1-16.2-.1-.5-.1-1-.2-1.4l3-1.5c4-2.1 8.3-5.1 11.7-7.6l-.9-3.3H427.4c-.6 2.1-1.1 4.2-1.6 6.4 3.3 2.4 7.9 5.2 12 7.2 1.1.5 2.1 1 3.1 1.4-.6 5.3-.6 10.7.1 16.2.1.5.2 1 .2 1.4l-3 1.5c-4 2.1-8.3 5.1-11.7 7.6.8 2.7 1.5 5.4 2.3 8.1 1 2.6 2 5.3 3.2 7.8 4.3-.1 9.5-.5 13.9-1.3 1.2-.2 2.3-.4 3.3-.7 2.9 5.2 6.5 9.9 10.6 14-.5.9-1 1.9-1.5 3-2 4.2-3.7 9-5 13l3.2 2.7c1.1.8 2.3 1.6 3.4 2.4l3.5 2.4 3.7 2.1c3.4-2.5 7.3-5.8 10.5-9.1.8-.9 1.6-1.7 2.3-2.5 5.3 2.4 11 4.2 16.9 5.1.1 1.1.3 2.2.5 3.3.8 4.4 2.3 9.4 3.6 13.5 2.8.2 5.6.2 8.4.3 2.8-.1 5.6-.4 8.4-.6 1.2-4 2.5-9.2 3.1-13.6.2-1.2.3-2.3.4-3.3 5.9-1.2 11.5-3.2 16.7-5.7.7.8 1.5 1.6 2.4 2.4 3.3 3.1 7.5 6.5 10.9 8.8 4.8-3 9.3-6.3 13.4-10.2-1.4-4-3.3-8.8-5.4-12.8-.6-1.1-1.1-2.1-1.7-3 4-4.3 7.4-9.2 10.1-14.4 1.1.2 2.2.4 3.4.6 4.4.6 9.6.8 13.9.7 2.2-5.2 3.8-10.6 4.9-16.1-3.3-2.4-7.9-5.2-12-7.2-1.1-.5-2.1-.9-3.1-1.4z"/></g><g><path class="st3" d="M496.7 6c.9-1.8 1.6-3.6 2.3-5.4h-26.9c-4.4 6.7-10.6 12.2-18.4 15.8-20 9.1-43.3 2-55-15.8h-26.9c.4 1.1.9 2.3 1.4 3.4.2.4.4.9.6 1.3-.8.7-1.6 1.5-2.5 2.3-3.2 3.2-6.6 7.3-9.2 10.8 1.5 2.4 3 4.8 4.6 7.2 1.8 2.2 3.5 4.5 5.3 6.7 4.1-1.3 9.1-3.2 13.1-5.2 1.1-.5 2.1-1.1 3-1.6 4.3 4.2 9.2 7.7 14.4 10.5-.2 1.1-.4 2.2-.6 3.4-.8 4.6-1 9.8-1.1 14l3.9 1.7c1.3.5 2.7.9 4 1.4l4.1 1.3 4.2 1c2.5-3.4 5.4-7.7 7.5-11.9.6-1.1 1.1-2.1 1.5-3.1 5.8.8 11.8.9 17.8.1.4 1 .9 2 1.5 3.1 2.1 4.1 4.9 8.5 7.4 12 2.8-.6 5.5-1.4 8.3-2.2 2.7-.9 5.3-2 8-3 0-4.2-.3-9.6-.9-14.1-.2-1.2-.4-2.3-.6-3.4 5.4-2.9 10.2-6.4 14.5-10.4.9.5 1.9 1.1 3 1.6 4.1 2.1 9.1 4.1 13.1 5.4 3.8-4.2 7.2-8.8 10.1-13.7-2.5-3.5-5.8-7.6-8.9-10.8-1-.8-1.8-1.6-2.6-2.4z"/></g><g><g><g><g fill="#b28aff"><path d="M74.1 175h21.4c1.9 0 3.4-1.5 3.4-3.4v-44.8c0-1.9-1.5-3.4-3.4-3.4H74.1c-1.9 0-3.4 1.5-3.4 3.4v44.8c0 1.9 1.5 3.4 3.4 3.4z" opacity=".17"/><path transform="rotate(-180 84.811 148.342)" opacity=".25" d="M72.1 128.5h25.4v39.7H72.1z"/></g><g><path d="M88.3 19.5V112c0 1.9 1.5 3.4 3.4 3.4h174.9c1.9 0 3.4-1.5 3.4-3.4V19.5c0-1.9-1.5-3.4-3.4-3.4H91.7c-1.9 0-3.4 1.6-3.4 3.4zm6.2 4.9c0-1.7 1.4-3.2 3.2-3.2h163c1.7 0 3.2 1.4 3.2 3.2v77.7c0 1.7-1.4 3.2-3.2 3.2h-163c-1.7 0-3.2-1.4-3.2-3.2V24.4z" opacity=".41" fill="#b28aff"/><g opacity=".24"><path class="st2" d="M171.8 29.7V62h86.3V29.7zM161.7 62V29.7h-60.9V62h48.3zm44.1 9.7h52.4v22.6h-52.4zm-105 0h38.1v22.6h-38.1zm48.3 0h46.5v22.6h-46.5z"/></g><g opacity=".17"><path class="st3" d="M167.2 21.2l-51.9 84h13.9l51.9-84zm62.4 0l-52 84h13.9l52-84z"/></g></g><g><path class="st3" d="M178.9 132.7h41.7c1.9 0 3.4-1.5 3.4-3.4V68.5c0-1.9-1.5-3.4-3.4-3.4h-41.7c-1.9 0-3.4 1.5-3.4 3.4v60.9c.1 1.8 1.6 3.3 3.4 3.3z"/><path transform="rotate(-180 199.809 97.17)" opacity=".45" fill="#b28aff" d="M178.8 69.3h42.1v55.8h-42.1z"/></g><g class="st10"><g><path class="st2" d="M166.3 194.9H89.9v-20.2h1.7v18.5h73v-78.6h1.7z"/></g><g><path class="st2" d="M79.4 174.7h1.7V224h-1.7z"/></g><g><path class="st2" d="M155.5 114.6h1.7v58.7h-1.7z"/></g><circle class="st2" cx="80.3" cy="226" r="2"/><circle class="st2" cx="156.4" cy="173.3" r="2"/></g><path d="M83.7 128.5l-11.6 18.7v8.5l16.8-27.2zm13.8.6l-23.9 38.8h5.2l18.7-30.2z" opacity=".22" fill="#fff"/><g opacity=".3"><path d="M193.2 69.3l-14.4 22.4v12.6l22.4-35zm27.7 0h-2.1L183 125.1h8.1l29.8-46.6z" opacity=".3" fill="#fff"/></g><g class="st10"><path class="st2" d="M301.1 250.3H194.4V132.7h1.7v115.9h105z"/></g></g></g></g><g class="st14"><defs><path id="SVGID_4_" class="st14" d="M465.6 144.6H152L157.1 0h313.5z"/></defs><clipPath id="SVGID_1_"><use xlink:href="#SVGID_4_" overflow="visible"/></clipPath><g clip-path="url(#SVGID_1_)"><path class="st16" d="M392 10.7c-1.2 0-2.2.5-3 1.2-4.6-1-12.5.2-23.7 3.6-4.6 1.4-9.5 3.1-14.7 5 .7-2.1 1.4-4.1 2-6.1 3.4-11.9 3.4-18.9-.2-20.7-5.8-3.1-17.6 10.3-29 28.4-21.3-20.5-42.7-35.7-49-30-6.3 5.8 7.5 28.5 26.3 51.5-15.6 8.4-29.6 17.2-40 25.1-7.4 5.6-12.5 10.4-15.2 14.2-.3 0-.5-.1-.8-.1-4 0-7.3 3.2-7.3 7.3 0 4 3.2 7.3 7.3 7.3 2.7 0 5-1.5 6.3-3.7h.3c4.7 0 11.4-1.3 20.1-3.9 7.3-2.2 15.5-5.2 24.2-8.8-2.8 10.1-3.2 17.6.5 19.5.6.3 1.2.4 1.9.4 6.4 0 17.3-13 27.8-29.9 19.5 19.3 39.8 35 49.2 35 1.5 0 2.7-.4 3.6-1.2 3.5-3.3 1.2-11.7-7.1-25-5-8.2-11.9-17.5-19.8-27.1 9.2-5.5 17.4-11 24.2-16.1 9.3-7 14.9-12.7 16.9-17 2.1-.4 3.6-2.2 3.6-4.4.1-2.5-1.9-4.5-4.4-4.5zM350.4-4.2c.3 0 .5.1.8.2 1.6.8 2.2 6-1.2 17.7-.7 2.5-1.6 5.2-2.7 8-4.8 1.9-9.7 3.9-14.8 6.2l-5-2.8c-.4-.2-.8-.3-1.3-.2-.3-.3-.6-.6-1-.9 11.6-18.3 21.4-28.2 25.2-28.2zm-9 37.1c.6-.2 1.1-.3 1.6-.5-.2.4-.3.8-.5 1.1l-1.1-.6zm-33 15.6c-.2-.3-.5-.5-.7-.8.2-.1.5-.3.7-.4v1.2zm11-20l-10.1 5.7c-.8.4-1.1.9-1 2v1.7c0 .5 0 1 .1 1.5-.3.1-.5.3-.8.4-8.9-11.6-12.4-21-9.8-23.4 2.6-2.5 11.6 1.4 22.6 10.5-.4.6-.7 1.1-1 1.6zm-12.2 14.6c.4.4.8.9 1.1 1.2v.8l-2 1.1c-.5-.6-1-1.2-1.6-1.9.9-.4 1.7-.8 2.5-1.2zm.1 8.2c-2.9 6.1-5.5 12-7.6 17.7-2.1.7-4.1 1.4-6.1 1.9-10 2.8-14.7 2.5-15.8 1.2-.2-.2-.3-.5-.2-1.2.8-3.8 10.7-12.4 27.6-21.8.8.7 1.4 1.4 2.1 2.2zm.9 4.2c0 1.1.2 2 .9 2.4l7.4 4.2c-4.7 2.1-9.3 4-13.6 5.6 1.6-3.7 3.3-7.8 5.3-12.2zM307 68.3c3.4-1.3 10-4.3 11.4-4.9.9 1 1.9 1.9 2.8 2.9-7.2 3.6-14.4 6.9-21.3 9.9.6-1.9 1.4-4 2.2-6.1 1.6-.5 3.3-1.1 4.9-1.8zM343.6 58c.5-.3.7-.6.9-1l1.5-.9c4.6 7.7 6.2 13.5 4.2 15.3-1.7 1.6-6.2.5-12.2-3-1.9-1.1-3.9-2.4-5.9-4l11.5-6.4zm1.1-4.2zm-.2-4.3v-.2c.2-.1.4-.3.7-.4.9 1 1.8 2.1 2.7 3.1-.4.2-.8.5-1.1.7-.9-1.1-1.6-2.2-2.3-3.2zm0-5.3c0-2.2.1-4.3.1-6 0-.9 0-1.8-.1-2.5l1.8-4.2c9.3-2.5 13.7-2.1 14.7-.9.2.2.4.5.2 1.2-.6 2.7-5.9 7.9-15.1 14.2-.5-.6-1.1-1.2-1.6-1.8zm-5.4-12.5l-3.7-2.1c3.6-1.6 7.2-3.1 10.6-4.4-.6 1.6-1.3 3.3-2 5-1.6.4-3.2.9-4.9 1.5zM276.2-6c.5-.4 1.2-.7 2.1-.7 6.5 0 23.3 11.3 43.7 31-.1.2-.3.4-.4.7-10.7-8.8-21.3-14.2-25.5-10.2-4.3 4.1.9 15.1 9.3 26.2-.8.4-1.6.8-2.3 1.2C282.4 17.3 272.2-2.3 276.2-6zm-5.5 93.2c-8.7 2.6-14.8 3.7-18.8 3.8 0-.3.1-.6.1-.9 0-2.7-1.5-5.1-3.8-6.3 2.4-3.2 6.9-7.5 14.1-13 10.4-7.9 24.5-16.7 40.1-25.1.5.6 1 1.2 1.6 1.9l-.7.4c-15.6 8.8-26.5 17.6-27.5 22.5-.3 1.4.2 2.3.6 2.8.9 1.2 2.8 1.7 5.4 1.7 4.2 0 10.2-1.4 17.1-3.6-.8 2.2-1.5 4.3-2.2 6.4-9.4 3.8-18.3 7.1-26 9.4zm26.7 10.9c-2.1-1.1-1.7-7.8 1.5-18.5 7.8-3.3 16-7.1 24.2-11.2l.8.8c-12.7 20.3-23.4 30.6-26.5 28.9zm72-17c8.3 13.5 9.3 20 7.5 21.7-4.1 3.8-24.6-9.2-49.7-34.1.5-.8 1-1.6 1.5-2.5l1.1-.6c2.4 1.8 4.7 3.4 7 4.7 4.6 2.7 8.3 4.1 11.2 4.1 1.6 0 2.9-.5 3.8-1.4 3.2-3 1.1-10-3.8-18.1l1.5-.9c8 9.7 14.9 19 19.9 27.1zm5-46.6c-6.8 5.1-15.1 10.6-24.3 16.1-.9-1.1-1.8-2.1-2.7-3.2 9.1-6.1 14.9-11.7 15.7-15.3.4-1.3-.1-2.2-.5-2.7-1.9-2.4-7.6-2.1-15.3-.1.7-1.9 1.5-3.7 2.1-5.4 5.9-2.3 11.5-4.2 16.7-5.8 9.3-2.8 15.6-3.8 19.5-3.8.8 0 1.4 0 2 .1-.1.3-.1.6-.1.9 0 1.8 1.1 3.3 2.6 4.1-1.8 3.1-6.5 8.1-15.7 15.1z"/><circle class="st16" cx="387.5" cy="55.7" r="7.3"/><circle class="st16" cx="324.3" cy="-5.1" r="8.7"/><circle class="st16" cx="219.9" cy="38" r="14.6"/><circle class="st16" cx="289.9" cy="112.3" r="5.4"/><circle class="st16" cx="270.2" cy="38" r="5.4"/></g></g><linearGradient id="SVGID_2_" gradientUnits="userSpaceOnUse" x1="325.911" y1="240.545" x2="325.911" y2="36.628"><stop offset="0" stop-color="#fff"/><stop offset="1" stop-color="#fff" stop-opacity="0"/></linearGradient><path fill="url(#SVGID_2_)" d="M403.1 37.1H248.8L298.5 240h54.8z"/><path d="M346 247.9c-4.2 1.3-11.9 2.2-20.9 2.2-8.9 0-16.7-.9-20.9-2.2-2.1-.6-3.3-1.4-3.3-2.2v4.4c0 2.4 10.8 4.4 24.1 4.4s24.1-2 24.1-4.4v-4.4c.2.8-1 1.6-3.1 2.2z" opacity=".43" fill="#b28aff"/><g><g><g><path class="st19" d="M364.6 112.6l-12.2 4.7c-.4.2-.7.6-.6 1l3.9 25.5 2.6-.4-3.9-25.2 12.4-4.6v-.7l-.7-.4c0-.1-.4-.5-1.5.1z"/></g><path class="st19" d="M370.3 139.1l-13.2 5.2-3.9-25.5c-.1-.4.2-.9.6-1l12.7-5c.4-.2.8.1.9.5l3.8 24.4c-.1.7-.4 1.2-.9 1.4z"/><path class="st2" d="M369.6 137.9l-12.5 4.7-3.4-22.6c-.1-.4.2-.8.6-.9l12-4.5c.4-.1.8.1.8.5l3.2 21.6c.2.5-.1 1-.7 1.2z"/></g><path class="st3" d="M376.2 124.4c.5 1.8 6.9 10.3 6.9 10.3s-1.6 5.1-5.3 3.5c-3.6-1.6-6.2-3.9-6.2-3.9s-2.4-1.3-6-.7c-1.5-3.2 3.6-3.6 3.6-3.6l-.7-3.8c-1.8-1.7-4.7-5-4.3-8.7 5.7 4.7 11.4 5.1 12 6.9z"/><path class="st2" d="M383 134.7s-4.1 1.2-7.3 2.5c-.2 5.5 8.5 18.1 11 20.9 2.5 2.8 5.8 2.9 6.3-.8s4.7-12.9 4.7-12.9l-14.7-9.7z"/><path class="st20" d="M383 134.7s-4.1 1.2-7.3 2.5c-.2 5.5 8.5 18.1 11 20.9 2.5 2.8 5.8 2.9 6.3-.8s4.7-12.9 4.7-12.9l-14.7-9.7z"/><path class="st2" d="M397.3 135.6c2.1 2.2-4 26.3-4 26.3s-3.1 3.1-17.6 6.3c-4.9 1.1-22.3-19.3-22.3-19.3-.9-4.1 2.1-7.6 7.3-7.4l12.5 9.1c2 1.3 19.8-19.5 24.1-15z"/><path class="st3" d="M412.1 96.9c-14.1 2.4-18.9 19.9-14.5 27.9 4.2 7.6 15.2 2.3 15.2 2.3s6.9-.3 11.3-12.3c3.9-10.1-2.2-19.5-12-17.9z"/><path class="st3" d="M402.7 116.9v18.3s8.6 3.3 11.7 0c3.1-3.3 2.4-14.5 2.4-14.5l-14.1-3.8z"/><path class="st21" d="M421.9 193.4s6.1 31.9 10.5 50.1c9 16.5 9 40.9 9 40.9l-7.7 6.8s-30.5-69.3-40.6-99.1c-2.2-6.8 28.8 1.3 28.8 1.3z"/><path class="st20" d="M396.9 107.4c-.4 5.8 7.8 5.5 5.7 16.6 0 0-.1 2.3 5 2.7 5.1.4 10.2 5.4 18.9-8.9 2.2-3.6 5.1-11.5 0-15.4s-8.4-7.2-9.7-8.7-7.1 1.7-7.1 1.7-1.4-1.8-6.4-1.6c-6.3.3-6.4 13.6-6.4 13.6z"/><path class="st22" d="M421.9 193.4c-16.3 0-34.9.5-38 1.8-.7 44.5 6.1 101.3 6.1 101.3l8.2 1.2s7-72.2 8.3-76.7c0 0 14-9.1 16.5-11.9 3.1-3.6-1.1-15.7-1.1-15.7z"/><path class="st2" d="M429.2 135.6c-.5-2.3-2.4-3.9-4.7-4.2-12.8-1.7-28.7 3.7-28.7 3.7-7.2 9-7.9 41.1-11.8 60.1 1.6.9 5.6 2.9 7.6 2.9 23.2.1 30.4-4.7 30.4-4.7-1.1-6.4-.2-14.2-.2-14.2s8.3-38.9 7.4-43.6z"/><path class="st22" d="M399.4 287.2v14.7H382V298s11.3-9.6 11.1-7.9c-.3 1.7 6.3-2.9 6.3-2.9z"/><path class="st21" d="M429.5 302h12.3l3.4-16.3s-5.7-11.6-5.8-11.4c-.2.3-6.6 8.8-6.6 8.8l-.5 10.5-2.8 8.4z"/><path class="st3" d="M362.8 132c-2.7-3.5-4.3 2.5-6.2 3.6-1.1-1.4-1.9-2.4-2.6-3.3l-1-6.8-1.9 3c-1.4 10.6 0 15.9 0 15.9l2.5 4.5 7.3-7.4c-.1 0-.7-7.7 1.9-9.5z"/></g><g><path class="st20" d="M238.3 263.9l-10.2 12.3-10.9 2.4.2-14zm-11.8 16.7l1.6-4.4-10.9 2.4 1.6 8.8h12z"/><path class="st2" d="M271.2 253.7s1.4-8.9-6.7-10.5c-8.7-1.8-26.8 2.2-29.3 2.6 0 0-3.8 24.1 2.3 27.4 8.3-.1 33.7-19.5 33.7-19.5z"/><path class="st2" d="M260.4 270.3l10.8-16.6-16.2-2.1-9.2 21.5-2.2 5 2.2 9.1h12l-4.1-6.3 1.3-2.3z"/><path class="st3" d="M233.2 177.7c7.8-8.9 15.1-4.2 17.4-2.6s1.5-.2 3.1 4.5c1.3 3.6 1 19.9-2.2 22.6s-16 .9-19.8-6.5c-3.6-7.5-2.4-13.5 1.5-18z"/><path class="st20" d="M242.3 171.8s-2.8-2.7-5.3-1.3-7.5 3.8-11.5 14.2c-1.1 2.8 6.6 12.8 6.6 12.8l15-1.4s1.3-8.3 11.9-17.7c0-7.2-10.6-13.5-16.7-6.6z"/><path class="st3" d="M272.1 233.6l5.9-3.4c3.9-3.8 4.4-11.3 4.4-11.3l-5.2 3.8s-7.2 1.7-7.3 3.3c4.5.9 2.2 7.6 2.2 7.6z"/><path d="M268.5 232.7h-29.4l30.3-21.4c.3-.2.7-.4 1.1-.4h22.6c1.9 0 2.7 2.5 1.1 3.6l-25.7 18.2z" opacity=".72" fill="#b28aff"/><linearGradient id="SVGID_3_" gradientUnits="userSpaceOnUse" x1="267.776" y1="229.436" x2="267.776" y2="212.208"><stop offset="0" stop-color="#fff" stop-opacity="0"/><stop offset="1" stop-color="#fff"/></linearGradient><path d="M264.5 229.4h-18.7l22.2-15.8c1.3-.9 2.8-1.4 4.3-1.4h16.8c.6 0 .8.8.4 1.1L268.9 228c-1.3.9-2.8 1.4-4.4 1.4z" opacity=".31" fill="url(#SVGID_3_)"/><path class="st3" d="M273.4 227.6c-.9-.7 1.1-1.7 1.9-6 .1-.3.5-.3.6 0 .5 1.2.6 4.3 1.7 6.4.8 1.6-3.2 3.2-3.2 3.2 0-.1-.3-3-1-3.6z"/><g><path class="st2" d="M209.3 250.4c.4 10.9 2 24.7 12.7 22 3.9-1 5.9 3.1 15.4.6 13.7-3.6 10.5-24.7 10.5-24.7-3 2.7-9.2 4.9-11.8 5.3-3.3.5-17.8-1.7-26.8-3.2z"/><path class="st21" d="M220.2 203.3c-9.7 14.3-11.1 27.6-11.1 40.4 0 1.8 0 4.2.1 6.7 1.7 4 14.6 5.2 26.8 3.2 1.5-.2 7-8.6 7.5-12 2-14.1 14.5-25.1 9.2-42.6.2 0-25.6-5.8-32.5 4.3z"/></g><path d="M250.2 222.6s-13.2 22.6-14.1 31c6.1-3.8 7.5-9.4 7.5-9.4s9.7-15.2 10.9-26c.2-1.6-4.3 4.4-4.3 4.4z" fill="#e5725c"/><path class="st21" d="M245.2 198.6s3-.7 8.7.4c3.5.6 6.1 6.5 6.5 9.5 1 8.3 5.2 19.2 5.2 19.2l4.4-1.7s4.7 0 4.4 5.1c-.2 3.2-11.3 9.3-15.8 9.5-5.5.2-10.7-26.7-10.7-26.7l-2.7-15.3z"/><path class="st3" d="M252.6 187.8c-2.8-2.9-5.8-4.4-5.7 1.7.1 5.1 2.6 5.4 3.9 5.3 1.3-.1 1.8-7 1.8-7z"/><path class="st20" d="M266.5 257.9l-19.2 11.6-3.7 8.6z"/></g><g><path class="st3" d="M141.7.6c-3.7 7.5-9.9 13.8-18.2 17.4-18 7.9-38.9.1-47.4-17.4H40.8c.4 1.6.9 3.2 1.3 4.9.7 2.2 1.6 4.4 2.4 6.6 3.5.1 8-.2 11.7-.7 1-.1 1.9-.3 2.8-.5 2.4 4.5 5.2 8.5 8.5 12.1-.5.8-.9 1.6-1.4 2.5-1.7 3.4-3.5 7.5-4.5 10.8 3.5 3.2 7.3 6 11.3 8.4 2.9-2.1 6.3-4.8 9-7.4.7-.7 1.4-1.4 2-2.1 4.4 2.2 9.1 3.8 14 4.7.1.9.2 1.9.3 2.9.6 3.7 1.6 7.9 2.7 11.3 4.7.6 9.4.6 14.1.2 1.1-3.3 2.3-7.6 3-11.3.2-1 .3-1.9.4-2.8 4.4-.8 8.7-2 13-3.9.4-.2.7-.3 1.1-.5.6.7 1.2 1.4 1.9 2.1 2.7 2.7 6 5.5 8.9 7.7 2-1.2 4-2.5 6-3.8 1.9-1.4 3.7-2.9 5.6-4.4-1.1-3.4-2.6-7.5-4.3-10.9-.4-.9-.9-1.7-1.3-2.5 3.5-3.6 6.4-7.6 8.8-11.9.9.2 1.8.4 2.8.5 3.8.7 8.1.9 11.6.9l1.4-3.2 1.2-3.3 1.1-3.4.7-3h-35.2z"/></g></g></svg>