<svg xmlns="http://www.w3.org/2000/svg" viewBox="0 0 66 66"><circle cx="32.9" cy="33.4" r="33" opacity=".2" fill="#b28aff"/><circle cx="32.9" cy="33.4" r="26.8" opacity=".3" fill="#b28aff"/><path d="M51 26.1c0-1.8.1-3.3-.9-3.9l-16-9.1c-.6-.4-1.4-.4-2 0L16 22.2c-.8.4-1.1 1.3-1 2 .1 0 .1-.1.2-.1.7-.4 1.6-.4 2.3 0l10.4 5.7c.4-.3.9-.4 1.4-.3 1 .1 1.8.9 1.9 1.9.1 1.3-.9 2.4-2.2 2.4-1.1 0-2-.8-2.2-1.8L17 26.6c-.3-.2-.7.1-.7.4v16.9c0 .8.4 1.5 1.1 1.9l13.1 7.4c.6.3 1.3-.1 1.3-.7v-34c-.7-.4-1.1-1.2-1-2.1.1-1 .9-1.8 1.9-2 1.3-.1 2.4.9 2.4 2.2 0 .8-.4 1.4-1 1.8v34.8s.1.7-.4.7c.2.2.9-.3.9-.3l15.5-8.8c1-.6.8-2.2.8-2.9-.1-4.2 0-11.5.1-15.8z" fill="#b28aff"/></svg>