<svg xmlns="http://www.w3.org/2000/svg" viewBox="0 0 50 50"><g fill="#fff"><circle cx="24.8" cy="25.1" r="25" opacity=".25"/><path d="M24.8 4.8c-11.2 0-20.3 9.1-20.3 20.3s9.1 20.3 20.3 20.3c11.2 0 20.3-9.1 20.3-20.3S36 4.8 24.8 4.8zm13 29L26 40.4s-.5.3-.7.2c.3 0 .3-.6.3-.6V13.8c.5-.3.8-.8.8-1.4 0-1-.8-1.8-1.8-1.6-.8.1-1.4.7-1.5 1.5-.1.6.3 1.2.7 1.6v25.7c0 .5-.5.8-.9.6L13 34.5c-.5-.3-.8-.8-.8-1.4V20.2c0-.3.3-.4.5-.3l7.4 4.1c.1.8.8 1.4 1.6 1.4 1 0 1.8-.8 1.6-1.8-.1-.8-.7-1.4-1.5-1.5-.4 0-.8.1-1.1.3L12.9 18c-.5-.3-1.2-.3-1.7 0-.1 0-.1.1-.2.1-.1-.6.2-1.2.8-1.5L24 9.7c.5-.3 1.1-.3 1.5 0l12.1 6.9c.8.4.7 1.6.7 3 0 3.3-.1 8.8 0 12.1.2.4.3 1.7-.5 2.1z"/></g></svg>