<svg xmlns="http://www.w3.org/2000/svg" viewBox="0 0 200 52"><g><path d="M54.6 15.6L45 10.1c-.5-.3-1.2-.3-1.7 0l-1.9 1.1C32.1 3.3 22.6-1.9 18.9 1.6c-3.6 3.4.8 12.7 8 22 .8.9 1.5 1.7 2.2 2.4l.4.4 1.2 1.2C34 31 36.2 33 36.2 33s-.6-.2-1.7-.6c-1.3-.4-3.2-1.1-5.4-1.9 0 1.3 0 2.5-.1 3.5 0 1.5-.1 2.8.8 3.2l6.2 3.5c-6.9 3.1-13.4 5.6-19.1 7.2-8.3 2.3-12.2 2-13.1 1-.1-.2-.3-.4-.2-1 .7-3.2 8.9-10.3 23.2-18.3-.6-.3-1.3-.5-1.9-.8C12 36.4 3 43.7 2.1 47.7c-.3 1.1.1 1.9.5 2.3.8 1 2.3 1.4 4.5 1.4 4.8 0 12.5-2.2 21-5.5 3.2-1.2 6.5-2.5 9.7-4.1 4.7-2.3 16.4-9.7 16.4-9.7s-.9 1-2.7 2.7c-1.4 1.4-3.4 3.2-5.9 5.4-.5.4-1 .8-1.5 1.3-.9.7-1.9 1.6-2.9 2.3l2 1.1c.5.3 1.2.3 1.7 0l2.1-1.2c2 1.5 3.9 2.8 5.8 3.9 3.8 2.2 6.9 3.4 9.3 3.4 1.3 0 2.4-.4 3.2-1.1 3.2-3.1-.1-11.1-6.1-19.6v-.1c8.9-5.7 14.7-11 15.4-14.2.3-1.1-.1-1.9-.5-2.3-2.2-2.6-9.9-1.3-19.5 1.9zm-24.7 2.2c-.6.4-.9.8-.8 1.7v1.4c0 .7.1 1.6.1 2.5-8-10-11.2-18.2-9-20.3 2.2-2.1 10 1.3 19.4 9.2l-9.7 5.5zm29.3 17.9V34c4.7 7.3 6.4 12.9 4.6 14.6-1.4 1.3-5.2.4-10.1-2.5-1.6-.9-3.2-2-4.9-3.3l9.5-5.4c.7-.3.9-.8.9-1.7zm13.7-20c-.5 2.4-5.4 7.1-13.8 12.6 0-2.7.1-5.4.1-7.4 0-1.5.1-2.8-.8-3.2l-1.9-1.1c1.1-.4 2.2-.7 3.2-1 8.3-2.3 12.2-2 13-1 .2.3.4.6.2 1.1zm17.2 6.6c-2 0-3.7.7-5 2.1-1.3 1.4-2 3.4-2 5.9 0 2.1.5 3.8 1.5 5.2 1.3 1.7 3.2 2.6 5.8 2.6 1.7 0 3.1-.4 4.2-1.1 1.1-.7 1.9-1.9 2.4-3.3l-4-.7c-.2.7-.6 1.3-1 1.7-.4.4-.9.5-1.6.5-.9 0-1.7-.3-2.3-1-.6-.6-.9-1.6-1-2.8h10c.1-3.1-.6-5.4-1.9-6.9-1.1-1.5-2.8-2.2-5.1-2.2zm-2.8 6.6c0-1.1.3-1.9.8-2.6s1.3-.9 2.2-.9c.8 0 1.5.3 2.1.9.6.6.9 1.5.9 2.6h-6zm20.1 1.5c-.2.4-.3.8-.4 1.3-.1.2-.2.6-.4 1.3l-.8-2.6-2.9-7.7h-4.2l6.1 15.1h3.6l6-15.1h-4.1l-2.9 7.7zm15.2-8.1c-2 0-3.7.7-5 2.1-1.3 1.4-2 3.4-2 5.9 0 2.1.5 3.8 1.5 5.2 1.3 1.7 3.2 2.6 5.8 2.6 1.7 0 3.1-.4 4.2-1.1 1.1-.7 1.9-1.9 2.4-3.3l-4-.7c-.2.7-.6 1.3-1 1.7-.4.4-.9.5-1.6.5-.9 0-1.7-.3-2.3-1-.6-.6-.9-1.6-1-2.8h10c.1-3.1-.6-5.4-1.9-6.9s-2.9-2.2-5.1-2.2zm-2.8 6.6c0-1.1.3-1.9.8-2.6.6-.6 1.3-.9 2.2-.9.8 0 1.5.3 2.1.9.6.6.9 1.5.9 2.6h-6zm21.6-6.6c-1 0-1.9.2-2.8.7-.8.5-1.5 1.1-2 1.9v-2.2h-3.7v20.9h4V36c.7.8 1.5 1.4 2.1 1.7.7.3 1.4.5 2.3.5 1.8 0 3.2-.7 4.5-2.1 1.2-1.4 1.9-3.4 1.9-5.9 0-2.5-.6-4.4-1.9-5.8-1.2-1.4-2.6-2.1-4.4-2.1zm1.3 11.5c-.6.7-1.4 1.1-2.3 1.1-1 0-1.8-.4-2.5-1.2s-1-2.1-1-3.8c0-1.5.3-2.6 1-3.3s1.5-1.1 2.4-1.1c.9 0 1.7.4 2.4 1.2.6.8.9 1.9.9 3.5.1 1.7-.3 2.9-.9 3.6zm8.2-17h4v20.9h-4zm20.4 16v-4.7c0-1.8-.2-2.9-.5-3.6-.4-.6-1-1.2-1.9-1.6-.9-.4-2.2-.6-4-.6-2 0-3.4.4-4.5 1.1-1 .7-1.7 1.8-2.1 3.2l3.6.6c.3-.7.6-1.2 1-1.5.4-.3.9-.4 1.7-.4 1 0 1.8.2 2.1.5.4.3.6.9.6 1.7v.4c-.7.3-2 .6-3.9 1-1.4.3-2.4.6-3.2.9-.7.4-1.3.9-1.7 1.5-.4.7-.6 1.4-.6 2.3 0 1.3.5 2.4 1.3 3.2.9.8 2.1 1.3 3.7 1.3.9 0 1.7-.2 2.5-.5 1.9-1.1 3.5-2.4 3.8-4.1 0 0 .2 1.7-1.1 4.2h3.9c-.4-.7-.6-1.4-.7-2v-2.9zm-3.9-1.5c0 1-.1 1.6-.2 1.9-.2.5-.5 1-.9 1.3-.6.5-1.3.7-2.1.7-.6 0-1.2-.2-1.6-.6-.4-.4-.6-.9-.6-1.5s.3-1 .8-1.4c.4-.2 1.1-.5 2.2-.7 1.1-.3 1.9-.5 2.4-.6v.9zm13.2 3.5c-.3 0-.5-.1-.7-.2-.2-.1-.3-.3-.4-.5-.1-.2-.1-.9-.1-2.2v-6.1h2.7v-3.2h-2.7v-5.4l-4 2.3v3h-1.9v3.2h1.9v6.6c0 1.4 0 2.4.1 2.8.1.6.3 1.2.6 1.6.3.4.7.7 1.3.9.6.2 1.2.4 1.9.4 1.2 0 2.2-.2 3.2-.6l-.4-3.1c-.6.4-1.1.5-1.5.5zm15.5-10.3c-1.3-1.5-3.1-2.2-5.3-2.2-2 0-3.7.7-5 2.1-1.3 1.4-2 3.4-2 5.9 0 2.1.5 3.8 1.5 5.2 1.3 1.7 3.2 2.6 5.8 2.6 1.7 0 3.1-.4 4.2-1.1 1.1-.7 1.9-1.9 2.4-3.3l-4-.7c-.2.7-.6 1.3-1 1.7s-.9.5-1.6.5c-.9 0-1.7-.3-2.3-1-.6-.6-.9-1.6-1-2.8h10c.3-3.1-.4-5.4-1.7-6.9zm-8.1 4.4c0-1.1.3-1.9.8-2.6.6-.6 1.3-.9 2.2-.9.8 0 1.5.3 2.1.9.6.6.9 1.5.9 2.6h-6z" fill="#7a5cc4"/></g></svg>