<svg xmlns="http://www.w3.org/2000/svg" viewBox="0 0 50 50"><g fill="#fff"><circle cx="24.9" cy="25.1" r="25" opacity=".25"/><path d="M25.1 5.2c-10.9-.1-20 8.7-20.2 19.6-.2 9.1 5.7 16.8 13.8 19.5.6.2 1.1-.2 1.2-.8 0-1.5.1-3.5.1-5 0-2.5.2-3.4 1.3-4.5-8.6-.4-9-7-9.2-9.3s.9-4.8 2-6.1c-.5-2.9 0-4.1.5-5.4 1.1 0 3.2.5 5.4 2.2.8-.4 2.9-.6 5-.6s4.2.3 5 .6c2.2-1.6 4.3-2.2 5.4-2.2.5 1.3 1.1 2.5.5 5.4 1.1 1.3 2.2 3.8 2 6.1-.2 2.3-.5 9-9.2 9.3 1.1 1.1 1.3 2 1.3 4.5 0 1.4.1 3.4.1 4.9 0 .6.6 1 1.2.8 7.9-2.7 13.6-10.2 13.6-19 .1-11-8.8-19.9-19.8-20z"/></g></svg>