<svg version="1.1" id="Layer_1" xmlns="http://www.w3.org/2000/svg" xmlns:xlink="http://www.w3.org/1999/xlink" x="0" y="0" viewBox="0 0 630 302" xml:space="preserve"><style>.st2{fill:#b28aff}.st3{clip-path:url(#SVGID_1_)}.st4{fill:#fff}.st11,.st12{clip-path:url(#SVGID_1_)}.st11{fill:#b28aff;opacity:.49}.st12{opacity:.18}.st14{opacity:.3}.st16{clip-path:url(#SVGID_1_);display:none}.st17{display:inline}.st19{fill:#a85cff}.st20{fill:#e89285}.st21{fill:#ce6357}.st22{fill:#7828e0}.st27{fill:#9052e8}.st28{opacity:.17;fill:#b28aff}.st35{fill:#a758ff}.st40{fill:#c7c7ff}</style><g><path d="M392.5 198.9v-32.4h-1.9v32.4c-.8.4-1.3 1.1-1.3 2 0 1.2 1 2.2 2.2 2.2 1.2 0 2.2-1 2.2-2.2.1-.9-.4-1.7-1.2-2z" opacity=".49" fill="#b28aff"/><g opacity=".49"><path class="st2" d="M525.6 213.9v38.8h-72.4V146.4H451v108.4h76.7v-40.9z"/></g><g><g><defs><path id="SVGID_8_" d="M1.1 295.8h626.4L628.9 0H2.5z"/></defs><clipPath id="SVGID_1_"><use xlink:href="#SVGID_8_" overflow="visible"/></clipPath><g class="st3"><g><path class="st4" d="M545.3 213.9h-24.2c-2.1 0-3.8-1.7-3.8-3.8v-50.3c0-2.1 1.7-3.8 3.8-3.8h24.2c2.1 0 3.8 1.7 3.8 3.8v50.3c0 2.1-1.7 3.8-3.8 3.8z"/></g><g><path class="st4" d="M545.3 213.9h-24.2c-2.1 0-3.8-1.7-3.8-3.8v-50.3c0-2.1 1.7-3.8 3.8-3.8h24.2c2.1 0 3.8 1.7 3.8 3.8v50.3c0 2.1-1.7 3.8-3.8 3.8z"/></g><g opacity=".25"><path class="st2" d="M518.9 161.7h28.6v44.6h-28.6z"/></g></g><g class="st3"><g opacity=".41"><path class="st2" d="M525.4 34.9H327.9c-2.1 0-3.8 1.7-3.8 3.8v104.4c0 2.1 1.7 3.8 3.8 3.8h197.5c2.1 0 3.8-1.7 3.8-3.8V38.7c0-2.1-1.7-3.8-3.8-3.8zm-3.2 97c0 2-1.6 3.6-3.6 3.6h-184c-2 0-3.6-1.6-3.6-3.6V44.2c0-2 1.6-3.6 3.6-3.6h184c2 0 3.6 1.6 3.6 3.6v87.7z"/></g><g opacity=".24"><g><path class="st2" d="M434.9 50.1v36.5h-97.4V50.1z"/></g><g><path class="st2" d="M446.4 86.6V50.1h68.7v36.5h-54.5z"/></g><g><path class="st2" d="M337.5 97.6h59.1v25.5h-59.1z"/></g><g><path class="st2" d="M472.1 97.6h43.1v25.5h-43.1z"/></g><g><path class="st2" d="M408.1 97.6h52.5v25.5h-52.5z"/></g></g><g opacity=".17"><g><path class="st4" d="M415.7 40.6l-58.6 94.9h15.7l58.6-94.9z"/></g><g><path class="st4" d="M486.1 40.6l-58.6 94.9h15.7l58.7-94.9z"/></g></g></g><g class="st3"><g><path class="st4" d="M426.9 166.5h-47.1c-2.1 0-3.8-1.7-3.8-3.8V93.9c0-2.1 1.7-3.8 3.8-3.8h47.1c2.1 0 3.8 1.7 3.8 3.8v68.7c0 2.2-1.7 3.9-3.8 3.9z"/></g><g opacity=".45"><path class="st2" d="M379.6 94.9h47.5v63h-47.5z"/></g></g><g opacity=".49" clip-path="url(#SVGID_1_)"><path class="st2" d="M539.3 213.9h-1.9v32.6h1.9z"/><circle class="st2" cx="538.3" cy="248.8" r="2.2"/></g><path class="st11" d="M481.7 206.5v-59.6h-1.9v59.6c-.7.4-1.3 1.1-1.3 2 0 1.2 1 2.2 2.2 2.2s2.2-1 2.2-2.2c.1-.9-.4-1.6-1.2-2z"/><g class="st12"><path class="st4" d="M531.9 161.7l-13 21.1v9.6l18.9-30.7z"/></g><g class="st12"><path class="st4" d="M547.5 162.5l-27 43.8h5.9l21.1-34.2z"/></g><g opacity=".43" clip-path="url(#SVGID_1_)"><g class="st14"><path class="st4" d="M395.8 94.9l-16.2 25.3v14.2l25.3-39.5z"/></g><g class="st14"><path class="st4" d="M427.1 94.9h-2.3l-40.4 63h9.1l33.6-52.6z"/></g></g><path d="M525.6 213.9v44.5m1.9-44.5v38" fill="none" clip-path="url(#SVGID_1_)"/><g class="st16"><defs><path id="SVGID_2_" d="M201.3 68.4v137l24.2 2.7c.8.1 1.5.6 1.7 1.4l10.9 30.1 26.9 2.8.2-.1v.1c0 1.7-1.1 3.2-2.7 3.9l-21.7 8.1-6.1-.7-33.6-3.7v10.5h135.2V68.4h-135z"/></defs><clipPath id="SVGID_3_" class="st17"><use xlink:href="#SVGID_2_" overflow="visible"/></clipPath><g clip-path="url(#SVGID_3_)"><g><path class="st19" d="M296.8 119c-8.3 3.3-8 8.5-17.4 5.9-9.4-2.7-4.9-4.7-10-12-4.1-5.9 3.9-27.9 18.9-19.2 6.9 4.1 20.1 20.7 8.5 25.3z"/><path class="st4" d="M276.5 96.8c-10.6 4.3-13.9 21.3-11.8 25.9 2.5 5.3 8 4.4 11.2 3.7 3.2-.7 12.1-4.1 15.9-8.9 10.4-13.1.4-27.1-15.3-20.7z"/><path class="st19" d="M268.7 103.2s-2.7-16.5 4.5-18.3c4.3-1.1 12.9 1 15.4 2.8 5.6 4.1 2.6 7.7 6.1 9.8 3.5 2.1-13.2 4.8-18.2-.7-2.8-3-4.8 1.3-7.8 6.4z"/><path class="st19" d="M294.7 97.5c-6.2-1.8-7.7 5.3-8.9 7.6-4.9 9.7 3 10.7 1.2 19.4 2.6 1.7 9.9-6.4 14.3-12.2-1.2-4.9 2.5-12.2-6.6-14.8z"/><path class="st4" d="M285.6 112.1c6-3.5 9.3 1 6 4.9-3.3 3.9-5.3 2.8-9 2.4-3.6-.4 3-7.3 3-7.3z"/></g><path class="st20" d="M267.4 129.8c-9.9 4.3-1.7 16.8 1.5 36.4s-15.7 31.3-15.7 31.3 8.3 5.4 23.5 6.7c-1.9-.2 36-5.4 18.8.1 0 0 15.3-58.2 9.7-74.4-2.3-12.1-24-6.1-37.8-.1z"/><path class="st21" d="M309.4 135.5l-2.7 4.4-4.3 15.6-3.5 8.4-9.1 39.7 13.4-22.2z"/><path class="st19" d="M262.8 187.9s-12.3 16-9.7 18.2c4 3.3 27.9 8.6 34 7.4 11.8-2.3 15.7-23.1 15.7-23.1s-13.9-3-18.8.7c-5.9 4.5-21.2-3.2-21.2-3.2z"/><path class="st19" d="M215.7 187.9c31.7-7.1 47.7 0 47.7 0s13.4 19.7 9.2 24.8l-33.1-8.2-23.8-16.6z"/><path class="st22" d="M245.3 201.7s-24.3-9.1-23.6-10.6c-3.6 7.8-6.1 3.2 5.4 11.9-4.4 0-6.4.7-6.4.7l52 8.9-27.4-10.9z"/><path class="st19" d="M215.7 187.9c-12.4 10.8 1 19.9 1 19.9s24.9 8 29.1 12.1c5.6 5.4 11.7-5.3 7.4-9-16.2-13.9-37.5-23-37.5-23zm57 24.8c-.8-5.7.8-11.8 5.4-17 6.1-6.9 31.1-30.6 46.1-43.4 8.5-7.3 1.8 18.8 1.4 21.1-.3 2.3-12.2 24.9-20.3 31.1-3.5 2.7-18.2 9.1-18.2 9.1l-14.4-.9z"/><path class="st22" d="M287.1 213.5s13.3-2.9 16.5-5.9c7.7-7.3 16.5-39.3 16.5-39.3-.8 1.4-4.8 7-9.8 13.9-2.6 3.5 1.8-8.2-.9-4.4-.6.9-8.5 17.2-9.1 18.1-7 9.4-13.2 17.6-13.2 17.6z"/><path class="st20" d="M292.2 123.1s14.7-3.2 19.6 2.4c7.9 8.9 24.9 23.7 24.8 32-4.2 2.6-8.6 5.3-8.6 5.3-18.5-7.6-10.7-14.3-25.1-19-5.4-1.7-10.7-20.7-10.7-20.7z"/><path class="st20" d="M324.2 152.3s-5.7 2.6-17.2 10.4c-4.2 2.8.8 9 2.3 10.4 9.9-5 25.2-5 27.2-15.5.8-4-12.3-5.3-12.3-5.3z"/><path class="st4" d="M307 162.6s-8.3 3.4-10.2 8c-1.1 2.7-1.1 7.7-.9 11.5.1 1.2 1.7 1.6 2.3.6 1.3-2.3 3.2-5 5.7-6.7 1.9-1.2 2.9-.7 5.5-3.1 4.2-3.6-2.4-10.3-2.4-10.3z"/><path class="st20" d="M267.4 129.8c-7.7 3-22.3 34.1-22.1 46.6.1 7.1 15.8 6.3 13.6-.4 0 0 5.2-13.4 8.8-20.2 2.2-4.1 7.7-29.1-.3-26z"/><path class="st20" d="M257.9 173c-2.2-4.5-8.3-14.8-9.3-12-2 5.6-6 18.5-3.4 20.3 8.5 6 11.8 13.2 11.8 13.2s2.1-1.8 5.7-8.8l-4.8-12.7z"/><path class="st4" d="M262.8 185.9s-5.5-2.5-8.3 2.3c-1.1 1.8.3 5.4 1.3 8.9l1.9 6.3c.3 1.1 1.7 1.4 2.4.6 2.1-2 5.1-5.8 4.6-9.4-.7-5.2-1.9-8.7-1.9-8.7z"/><path class="st20" d="M253.1 210.8l-7.3 2.9v3.5l-4.1 5.5.7 8.2 1.8.8 12.4-6.7c3.8-2.2 3.5-6.2 3.8-10.6v-.5l-7.3-3.1z"/><path class="st4" d="M288.1 123.4c-1 6.6 5.7 18.5-2 20.4-7.8 2-12.6 4.3-13.6 0s1.4-16.2 1.8-16.7c5.5-7.6 13.8-3.7 13.8-3.7z"/><path class="st4" d="M274.9 119.8s-.9 13.6 1.3 14.5c2.1.9 4.9 3 8.3-2.2l3.4-5.2.3-15.4-13.3 8.3z"/><g><path class="st19" d="M324.2 158.7c-3.8-1.5-16.7 11.5-18.5 26.8-.3 2.4-2.1 15.4-3.6 25.7l3.4 1.5 7.7-.2c5.2-13 14-35.9 16.5-46.8 1-3.8.1-4.8-5.5-7z"/><path class="st20" d="M311.8 216c.4-1.1.9-2.3 1.4-3.6l-7.7.2-3.4-1.5c-.2 1.7-1.9 12.1-1.9 12.1l6.1 3.7 11.3-.7.8-2.3-6.6-7.9z"/></g><path class="st21" d="M260.5 214l-15.9 10.3-.4 7.5 13.3-7.2c3.3-1.9 2.6-5.3 2.9-9.1l.1-1.5zm57.2 12.3l.8-2.3h-10.7l-1.4 3z"/></g></g><g class="st16"><path d="M252.2 247.2l-1.7.7-8.1 3-15.1-41.5c-.3-.8-.9-1.3-1.7-1.4l-67.7-7.4c-.4 0-.8.1-1.1.4l-1.7 1.8 15.4 43.8 70.5 7.7 11.2-4.2v-2.3h6.1l4.3-1.6c1.6-.6 2.7-2.2 2.7-3.9l-13.1 4.9z" fill="#ece3ff"/><g class="st17"><path d="M241 254.4l-70.5-7.7-15.6-43c-.2-.5.2-1.1.8-1l68 7.4c.8.1 1.5.6 1.7 1.4l15.6 42.9z" fill="#d6b6ff"/></g><g opacity=".43"><path class="st4" d="M206 228.5c1.3 4.9-2.2 8.9-7.8 8.9s-11.3-3.9-12.6-8.8c-1.3-4.9 2.2-8.9 7.8-8.9s11.3 3.9 12.6 8.8z"/></g></g><path class="st11" d="M408.3 229.9h-53.9v-83.5h-2.2V232h58.2v-65.5h-2.1z"/><g class="st3"><path class="st20" d="M285 178.2c-10.8 5.1 3.8 13.8-.4 35.5-2.4 12.7-24.1 24.3-24.1 24.3s7.9 5.8 24.8 6.9c-2.2-.1 14.3 21.1 24.3 10.6 0 0 30.8-35.3 27.6-71.5-2.9-13.5-37.1-12.9-52.2-5.8z"/><path d="M340.4 198s-14 43.5-30.7 57.5c-2.2-.1-4.6-7.9-3.8-9.8.3-.7 5.5-5.5 6.1-6 2.9-3 15.7-16.9 18.1-22.6 2.7-6.5 6.2-18.4 6.2-18.4l4.1-.7z" fill="#d18078"/><path class="st19" d="M270.5 231.4c-16.4 10.7-18.5 27-15.6 29.3 0 0 21.3 9.9 38.6 7.9 16.5-1.9 13.5-11.5 19-18.4 4.9-10.6-27.8-19.9-42-18.8z"/><path class="st27" d="M312.4 250.3c1.3-2.9-.1-5.6-3.1-8.1l-9.8 9.3 10.1 4c.7-1.8 1.6-3.6 2.8-5.2z"/><path class="st20" d="M325.4 176s9.7-.3 18.1 8.6c5.4 5.8 10.2 31.3 17.7 44.6.5 4.2-9.3 8.1-14.1 2.7-11-12.2-17.3-29.3-17.3-29.3-4.6-4.4-4.4-26.6-4.4-26.6z"/><path class="st28" d="M418.9 257.7l-49.1 12.7-49.7-10.2 49.1-12.7z"/><path class="st28" d="M414.5 267.9l-49.6 9.8-33.6-10.9L381 257z"/><path class="st4" d="M388.8 256.3c-7.2 0-15.5-3.2-19.1-4.7-2.4-1-6.1 2.9-8.6 4.5.9 6.3 19.9 7.4 19.9 7.4s-1.5-.7-3.3-1.7c-1-.6-.6-2.1.5-2.1 2.7-.2 13.7-2.1 10.6-3.4z"/><path class="st20" d="M343.8 227.2s.7 2 17.3 28.8c1.6 2.5 10.3 2.1 11.9-2.6-3.9-11.7-13-24.6-16-33.6-1.4-4.2-13.2 7.4-13.2 7.4z"/><path class="st4" d="M298.2 172.3c-.6.2-6.7 16.2-5.5 21 1.2 4.8 5.4 6.4 14 4 7.3-2 11.4-16.4 9.1-23.8 0-.2-.2-.3-.4-.3-6.3-.6-14-1.8-17.2-.9z"/><g><g><path class="st19" d="M323.8 163.5c-9.1 3.9-8.7 9.7-19.2 7-10.5-2.7-5.6-5.1-11.5-13.1-4.7-6.4 3.6-31.1 20.4-21.8 8 4.3 23 22.4 10.3 27.9z"/><path class="st4" d="M300.6 139.4c-11.6 5.1-14.9 24-12.4 29 2.9 5.9 9 4.6 12.5 3.8 3.5-.8 13.3-4.9 17.4-10.3 11.3-14.8-.2-30.1-17.5-22.5z"/><path class="st19" d="M292.2 146.7s-3.5-18.2 4.5-20.5c4.7-1.3 14.4.7 17.1 2.7 6.3 4.4 3.1 8.5 7 10.7 4 2.2-14.5 5.7-20.3-.3-3.1-3.3-5.1 1.6-8.3 7.4z"/><path class="st19" d="M320.9 139.6c-6.9-1.8-8.4 6.1-9.6 8.7-5.2 10.9 3.6 11.8 1.8 21.5 2.9 1.8 10.9-7.3 15.6-13.9-1.6-5.4 2.4-13.6-7.8-16.3z"/><path class="st4" d="M311.2 156.1c6.5-4 10.3.8 6.8 5.3-3.5 4.5-5.8 3.3-9.9 2.9-4.1-.4 3.1-8.2 3.1-8.2z"/></g><path class="st4" d="M299.5 164.9s-.6 15.1 1.8 16.1c2.4 1 5.5 3.2 9.2-2.7l3.6-5.8-.1-17.1-14.5 9.5z"/></g><path class="st19" d="M233.5 195.9c-9.3 6.5-6.3 16.5-6.3 16.5s23.6 54.2 33.1 54c5-.1 14.1-28.1 10.2-35-16.2-28.3-37-35.5-37-35.5z"/><path class="st27" d="M245.4 211.8l24.2 47.2-15.4 15.9z"/><path class="st19" d="M233.5 195.9c10.3 0 24.4 45 20.7 78.9-19.5 14.8-26.9-52.1-29.1-62.4-2.8-13.6 8.4-16.5 8.4-16.5zm90.6 86.5c-8.9-6.9-46-23.9-46-23.9s2-5.2 26-10.3c3.3-.7 6.8.1 9.5 2.1 8.9 6.8 29.7 21.6 20.6 29.3-7 6-10.1 2.8-10.1 2.8z"/><path class="st27" d="M269.2 261.6l21.2-4.3c28.6-2.5 35.7 14.7 35.7 14.7l-56.9-10.4z"/><path class="st4" d="M269.6 259c-10.3-1.5-23.6 5.8-26.7 6.7.2 7.1 11.5 15.7 29.4 6.7 15 .4 16.3-10.7-2.7-13.4z"/><path class="st19" d="M326.6 265.9c-15.4-6.4-42.9-5.2-48.8-5-3.8.1-6.7 3.9-6.8 7.7-.1 1.4-.2 3.2 1.2 3.9 11.2 5.3 45.9 14.8 54.8 12.8 6.4-1.4 8.6-7.4 9.2-9.5l-9.6-9.9z"/></g><g opacity=".2" clip-path="url(#SVGID_1_)"><path d="M45.9-14c-10.8 71.8 79.9 89.4 87.9 155.9 9.5 78.9 79.6 119.6 79.6 119.6-42.6-58.6-3-125.2 63.7-110.5 87.8 19.3 90.5-96 154.8-84.5C547.4 87 586.1 73 628.4-14H45.9z" fill="#a399ff"/></g><g opacity=".16" clip-path="url(#SVGID_1_)"><path class="st4" d="M234.2 261C150.2 213.3 108 47 122.6-28.8c56.8-295.1 518-153.7 518-153.7s-35.9 291-193.9 211.7C278.3-55.5 113.1 157.7 234.2 261z"/></g><g opacity=".59" clip-path="url(#SVGID_1_)"><defs><path id="SVGID_11_" opacity=".59" d="M9.4-14h295.8v165H9.4z"/></defs><clipPath id="SVGID_4_"><use xlink:href="#SVGID_11_" overflow="visible"/></clipPath><g clip-path="url(#SVGID_4_)"><path class="st35" d="M263.2 6.4c-1.5 0-2.8.6-3.8 1.5-5.7-1.2-15.6.3-29.5 4.5-5.7 1.7-11.9 3.8-18.3 6.3.9-2.6 1.7-5.1 2.4-7.6 4.3-14.8 4.3-23.5-.1-25.9-7.2-3.8-21.9 12.8-36.1 35.4-26.5-25.5-53.2-44.5-61-37.3-7.8 7.2 9.3 35.5 32.8 64-19.4 10.5-36.8 21.3-49.8 31.2-9.2 7-15.5 12.9-18.9 17.7-.3 0-.6-.1-1-.1-5 0-9 4-9 9s4 9 9 9c3.3 0 6.2-1.8 7.8-4.6h.4c5.9 0 14.2-1.6 25.1-4.9 9.1-2.7 19.3-6.5 30.2-10.9-3.5 12.6-4 21.9.6 24.3.7.4 1.5.5 2.3.5 7.9 0 21.5-16.2 34.7-37.2 24.2 24 49.5 43.5 61.3 43.5 1.9 0 3.4-.5 4.5-1.5 4.4-4.1 1.4-14.6-8.8-31.2-6.3-10.2-14.8-21.7-24.7-33.7 11.4-6.8 21.7-13.6 30.1-20 11.5-8.8 18.6-15.8 21-21.1 2.6-.5 4.5-2.8 4.5-5.5-.1-2.9-2.6-5.4-5.7-5.4zM211.4-12c.4 0 .7.1 1 .2 2 1 2.7 7.4-1.5 22-.9 3.2-2 6.5-3.3 10-5.9 2.3-12.1 4.9-18.4 7.7l-6.2-3.5c-.5-.3-1-.3-1.6-.3l-1.2-1.2C194.5.2 206.7-12 211.4-12zm-11.1 46.1c.7-.2 1.3-.4 2-.6-.2.5-.4 1-.6 1.4l-1.4-.8zm-41.2 19.4c-.3-.3-.6-.7-.9-1 .3-.2.6-.3.9-.5.1.5.1 1 0 1.5zm13.8-24.9l-12.6 7.1c-1 .5-1.3 1.2-1.3 2.5v2.1c0 .6 0 1.2.1 1.9-.3.2-.7.4-1 .5-11-14.4-15.5-26.1-12.2-29.2 3.2-3.1 14.5 1.7 28.2 13.1-.5.8-.9 1.4-1.2 2zm-15.2 18.1c.5.5 1 1.1 1.4 1.5 0 0 .1.4.1 1l-2.5 1.4c-.7-.8-1.3-1.5-1.9-2.3.9-.5 1.9-1 2.9-1.6zm.1 10.3c-3.6 7.5-6.8 15-9.5 22-2.6.9-5.1 1.7-7.5 2.4-12.5 3.5-18.3 3.1-19.6 1.5-.2-.2-.4-.6-.2-1.5 1-4.7 13.3-15.4 34.4-27.2.7.9 1.6 1.8 2.4 2.8zm1.2 5.2c0 1.4.3 2.5 1.2 3l9.3 5.3c-5.9 2.7-11.6 5-17 6.9 1.8-4.7 4-9.8 6.5-15.2zm-1.5 16c4.2-1.7 12.5-5.3 14.2-6 1.1 1.2 2.3 2.4 3.5 3.6-9 4.5-17.9 8.6-26.5 12.3.8-2.4 1.7-4.9 2.7-7.6 1.9-.8 4-1.5 6.1-2.3zM203 65.3c.6-.3.9-.7 1.1-1.3.6-.4 1.3-.7 1.9-1.1 5.7 9.6 7.7 16.8 5.3 19.1-2.1 2-7.8.6-15.2-3.8-2.4-1.4-4.8-3-7.4-4.9l14.3-8zm1.3-5.2zm-.3-5.4v-.2c.3-.2.5-.4.8-.5l3.3 3.9c-.5.3-.9.6-1.4.8-.8-1.4-1.7-2.7-2.7-4zm.1-6.6c0-2.8.1-5.4.1-7.5 0-1.2 0-2.2-.1-3.1.8-1.8 1.5-3.5 2.2-5.2 11.5-3.1 17-2.7 18.2-1.1.2.3.4.7.2 1.5-.7 3.4-7.3 9.9-18.8 17.6-.5-.7-1.1-1.5-1.8-2.2zm-6.7-15.6l-4.6-2.6c4.5-2 8.9-3.8 13.2-5.5-.8 2-1.6 4.1-2.5 6.3-2 .5-4 1.1-6.1 1.8zm-78.3-46.8c.6-.6 1.5-.8 2.6-.8 8 0 29 14 54.4 38.5-.2.3-.3.6-.5.8-13.4-10.9-26.6-17.6-31.8-12.6-5.3 5.1 1.1 18.7 11.6 32.6-1 .5-1.9 1-2.9 1.5-25.7-31.1-38.3-55.5-33.4-60zm-6.9 115.9c-10.9 3.3-18.4 4.6-23.4 4.7.1-.4.1-.8.1-1.2 0-3.4-1.9-6.4-4.7-7.9 3-3.9 8.6-9.3 17.6-16.1 13-9.9 30.4-20.7 49.9-31.2.6.8 1.3 1.5 2 2.3l-.9.5c-19.4 11-32.9 21.9-34.2 28-.4 1.7.2 2.9.7 3.5 1.2 1.5 3.5 2.1 6.7 2.1 5.2 0 12.7-1.7 21.2-4.5-1 2.7-1.9 5.4-2.7 7.9-11.6 5-22.6 9-32.3 11.9zm33.2 13.6c-2.6-1.4-2.1-9.7 1.9-23.1 9.7-4.1 19.9-8.8 30.2-14l1 1c-15.8 25.4-29.2 38.2-33.1 36.1zm89.7-21.1c10.3 16.8 11.6 24.9 9.3 27-5.1 4.8-30.6-11.4-61.8-42.4.6-1 1.2-2 1.9-3.1l1.4-.8c3 2.2 5.9 4.2 8.7 5.9 5.7 3.4 10.4 5.1 13.9 5.1 2 0 3.6-.6 4.8-1.7 4-3.8 1.4-12.6-4.7-22.6.6-.4 1.2-.7 1.8-1.1 9.9 12 18.4 23.5 24.7 33.7zm6.2-58.1c-8.4 6.4-18.7 13.2-30.2 20.1-1.1-1.3-2.3-2.7-3.4-4 11.3-7.6 18.6-14.6 19.6-19 .4-1.6-.1-2.8-.7-3.4-2.3-2.9-9.5-2.6-19-.2.9-2.3 1.8-4.6 2.6-6.8 7.4-2.8 14.4-5.3 20.7-7.2 11.5-3.5 19.4-4.7 24.3-4.7.9 0 1.8.1 2.5.1-.1.3-.1.7-.1 1.1 0 2.2 1.3 4.2 3.2 5.1-2.2 4-8.1 10.3-19.5 18.9z"/><circle class="st35" cx="257.6" cy="62.4" r="9"/><circle class="st35" cx="178.9" cy="-13.2" r="10.9"/><circle class="st35" cx="49" cy="40.4" r="18.2"/><circle class="st35" cx="136.2" cy="132.9" r="6.8"/><circle class="st35" cx="111.7" cy="40.4" r="6.8"/></g></g><path d="M572.4 18.6c-1.2-.2-2.4-.4-3.5-.7-.2.4-.5.9-.7 1.3-3 5.1-6.5 9.6-10.4 13.6.6 1 1.1 2 1.7 3.2 2.1 4.3 4.1 9.6 5.4 13.7-4.5 3.9-9.4 7.4-14.6 10.3-3.6-2.7-7.8-6.2-11.2-9.5-.9-.9-1.7-1.8-2.5-2.7-5.7 2.6-11.6 4.5-17.8 5.6-.1 1.1-.3 2.4-.5 3.6-.8 4.7-2.3 9.9-3.7 14.2-5.9.6-11.9.5-17.8-.2-1.4-4.1-2.7-9.7-3.4-14.4-.2-1.2-.3-2.4-.4-3.5-6-1.2-12-3.2-17.7-6-.8.8-1.6 1.7-2.5 2.5-3.4 3.3-7.8 6.9-11.4 9.4-2.5-1.6-5-3.2-7.4-4.9-2.3-1.9-4.7-3.7-6.9-5.7 1.4-4.3 3.5-9.4 5.7-13.6.6-1.1 1.1-2.2 1.7-3.1-4.3-4.6-7.9-9.7-10.8-15.2-1.1.2-2.3.4-3.5.6-4.9.7-10.2.9-14.7.9l-1.7-4.1-1.4-4.2c-.4-1.4-.9-2.8-1.3-4.3l-.9-4.4c3.6-2.6 8.2-5.5 12.6-7.7 1.1-.6 2.2-1.1 3.2-1.5-.8-6.2-.7-12.4.2-18.6-1-.5-2.1-1-3.2-1.6-4.2-2.2-8.8-5.3-12.5-8 .7-2.9 1.6-5.7 2.4-8.6 1-2.8 2.2-5.5 3.3-8.3 4.5.1 10 .4 14.8 1.2 1.2.2 2.4.4 3.5.7.2-.4.5-.9.7-1.3 3-5.1 6.5-9.6 10.4-13.6-.6-1-1.1-2-1.7-3.2-2.1-4.3-4.1-9.6-5.4-13.7 1.7-1.5 3.5-2.9 5.3-4.2L490.9-60c-9.7 3.5-18.4 10.4-24 20-12.8 22-5.5 50.2 16.5 63s50.2 5.5 63-16.5 5.5-50.2-16.5-63c-.9-.5-1.9-1-2.8-1.5l25.3-34.3c2.3 1.5 4.7 3 6.9 4.6 2.3 1.9 4.7 3.7 6.9 5.7-1.4 4.3-3.5 9.4-5.7 13.6-.6 1.1-1.1 2.2-1.7 3.1 4.3 4.6 7.9 9.7 10.8 15.2 1.1-.2 2.3-.4 3.5-.6 4.9-.7 10.2-.9 14.7-.9l1.7 4.1 1.4 4.2c.4 1.4.9 2.8 1.3 4.3l.9 4.4c-3.6 2.6-8.1 5.5-12.6 7.7-1.1.6-2.2 1.1-3.2 1.5.8 6.2.7 12.4-.2 18.6 1 .5 2.1 1 3.2 1.6 4.2 2.2 8.8 5.3 12.5 8-.7 2.9-1.6 5.7-2.4 8.6-1 2.8-2.2 5.5-3.3 8.3-4.5.1-10-.3-14.7-1.1z" clip-path="url(#SVGID_1_)" fill="#fff"/></g><g><g><path d="M235.2 269.3l-18.5 6.2c-.5.2-.8.6-.8 1.1v22.2c0 .6.4 1.1 1 1.2l12.2 2c.9.1 1.8.1 2.6-.2l18.5-6.2c.5-.2.8-.6.8-1.1v-22.2c0-.6-.4-1.1-1-1.2l-12.2-2c-.9-.2-1.8-.1-2.6.2zm-45.2-7.2l-18.5 6.2c-.5.2-.8.6-.8 1.1v22.2c0 .6.4 1.1 1 1.2l12.2 2c.9.1 1.8.1 2.6-.2l18.5-6.2c.5-.2.8-.6.8-1.1v-22.2c0-.6-.4-1.1-1-1.2l-12.2-2c-.8-.1-1.7 0-2.6.2z" fill="#b289f4"/></g><path d="M221 285.8l-62.9-10.5c-2.5-.4-2.8-3.9-.4-4.7l39.2-13.1c2.3-.8 4.8-1 7.2-.6l62.9 10.5c2.5.4 2.8 3.9.4 4.7l-39.2 13.1c-2.3.9-4.8 1.1-7.2.6z" fill="#c79cff"/><path opacity=".26" fill="#fff" d="M201.2 257.6L160.8 271l63.4 11 39.9-14z"/><g><path class="st40" d="M229.2 263.3l-36.3-6.2 36.3 21.3 23.7-7.9v-1.9c0-.7-.5-1.3-1.2-1.5l-22.5-3.8z"/><path d="M225.2 276l-37.1-6.2 25.3-8.4 34 5.7c.8.1.9 1.3.1 1.5l-22.3 7.4z" opacity=".43" fill="#fff"/><g><g><path class="st40" d="M214.3 245.3c-.6-1-1.6-1.8-2.8-2l-55.2-9.4c-.5-.1-1 0-1.4.3l-2.7 1.8c-1.1.7-.1 1.6.1 1.7l32.6 17.8 44.2 22.9 3.2-2.4-18-30.7z"/></g><g><path d="M229.2 278.4l-58-9.9c-1.2-.2-2.3-1-3-2.1l-16.3-29.1c-.3-.6.2-1.3.9-1.2l56.2 9.6c1.3.2 2.4 1 3.1 2.2l17.1 30.5z" fill="#e9e9ff"/><path d="M197.5 257.8c2.4 4.4.1 8-5 8.1-5.1 0-11.2-3.5-13.5-7.9-2.4-4.4-.1-8 5-8.1 5-.1 11.1 3.5 13.5 7.9z" opacity=".7" fill="#c2c2ff"/></g></g></g></g></g></g></svg>