<svg xmlns="http://www.w3.org/2000/svg" viewBox="0 0 90 50"><g><path d="M62.3 3.5c-.9 0-1.6.3-2.2.9-.6.6-.9 1.3-.9 2.2s.3 1.6.9 2.2c.6.6 1.3.9 2.2.9.9 0 1.6-.3 2.2-.9.6-.6.9-1.3.9-2.2s-.4-1.6-1-2.2c-.5-.6-1.3-.9-2.1-.9zm-12 23.2c.9 0 1.6-.3 2.2-.9.6-.6.9-1.3.9-2.2 0-.9-.3-1.6-.9-2.2-.6-.6-1.3-.9-2.2-.9-.9 0-1.6.3-2.2.9-.6.6-.9 1.3-.9 2.2 0 .9.3 1.6.9 2.2s1.4.9 2.2.9zM39.5 10.8L22.3.9c-1-.6-2.3-.6-3.4 0L1.7 10.8c-.9.5-1.5 1.4-1.7 2.4.9-.7 2.2-.9 3.3-.3 6 3.3 6.4 3.5 11.6 6.4.4-.2.9-.4 1.3-.4 1.4 0 2.6 1.1 2.6 2.6 0 1.4-1.1 2.6-2.6 2.6-1.4 0-2.5-1.1-2.6-2.5L2.1 15.1c-.2-.1-.5 0-.6.2V34c0 1.1.6 2 1.5 2.6l15.7 9.2c.2.1.5 0 .6-.1V6.5c-.7-.6-1.3-1.4-1.3-2.4 0-1.4 1.1-2.6 2.6-2.6 1.4 0 2.6 1.1 2.6 2.6 0 .9-.5 1.8-1.3 2.2v39c0 .5-.1 1-.4 1.5.3-.1.5-.2.8-.3l17.2-9.9c1-.6 1.7-1.7 1.7-2.9V13.8c0-1.3-.7-2.4-1.7-3zm20.2 11.6v17c0 1.9-.5 3.4-1.5 4.4-1 1-2.2 1.6-3.6 1.6-1 0-2-.3-2.8-.9L47.5 47c1.9 1.8 4.2 2.7 7.1 2.7 2.9 0 5.3-.9 7.3-2.8s3-4.4 3-7.4V13h-5.1l-.1 9.4zm28.9 6.2c-3.2-5.1-15.4-2.9-13.8-9.1.2-.5.6-.9 1-1.3.9-.8 2.2-1.2 4-1.2s3 .4 4 1.2c.9.8 1.4 1.7 1.4 2.8H90c0-2.3-.9-4.2-2.8-5.7S82.9 13 79.8 13c-3.1 0-5.5.8-7.4 2.3-1.9 1.5-2.8 3.4-2.8 5.7-.1 2.9 1.1 4.6 2.8 5.7 4.3 2.8 12.1 2 12.7 6.1 0 1.1-.4 2.1-1.4 2.8-.9.8-2.2 1.2-4 1.2s-3-.4-4-1.2c-.9-.8-1.4-1.7-1.4-2.8h-4.9c0 2.3.9 4.2 2.8 5.7s4.3 2.3 7.4 2.3c3.1 0 5.5-.8 7.4-2.3 1.9-1.5 2.8-3.4 2.8-5.7.2-1.5-.3-2.9-1.2-4.2z" fill="#2a3275"/></g></svg>