<svg version="1.1" id="Layer_1" xmlns="http://www.w3.org/2000/svg" x="0" y="0" viewBox="0 0 66 66" xml:space="preserve"><style>.st5{fill:#b28aff}</style><g><circle cx="33" cy="33" r="33" opacity=".2" fill="#b28aff"/><circle cx="33" cy="33" r="26.8" opacity=".3" fill="#b28aff"/><g><path class="st5" d="M53.1 19.6L36 9.8c-1.9-1.1-4.2-1.1-6 0l-17 9.8c-1 .6-1.6 1.6-1.6 2.7v21.3c0 1.1.6 2.2 1.6 2.7 0 0 5.1 3 6.5 3.4 2.3.7 3.9.4 5-.2 1.7-.9 2.7-2.7 2.7-4.9V24.3c0-.1-.1-.2-.2-.2h-3c-.1 0-.2.1-.2.2v20.4c0 .4-.1 1.5-1 2-1.2.6-3.7-.1-6.5-2.1l-1.7-1V22.4l17.3-10c.7-.4 1.5-.4 2.1 0l17.3 10v21.2L34 53.6c-.7.4-1.5.4-2.1 0l-4.2-2.4h-.1l-3.2 1.6c-.1.1-.1.2 0 .3l5.6 3.3c1.9 1.1 4.2 1.1 6 0l17-9.8c1-.6 1.6-1.6 1.6-2.7V22.3c0-1.1-.6-2.1-1.5-2.7z"/><path class="st5" d="M38.5 40c-4.7 0-5.9-1.2-6.3-3.7h-3.3c.7 6.2 5.5 7 9.6 7 2.2 0 8.8 0 8.8-5.7 0-5.2-2.6-5.5-8.1-6.1l-.7-.1c-4.9-.5-5.4-.8-5.5-2.1-.2-2.1 2.7-2.7 5-2.7 2.5 0 5.5.6 5.5 3.6h3.3c0-1.6-.6-6.8-8.8-6.8-7.7 0-8.3 4.5-8.3 5.9 0 2.1.8 3.4 2.5 4.2 1.3.6 3.2.8 5.9 1.1l.7.1c1.9.2 3.7.3 4.6 1 .9.7.7 2.5 0 3.2-.5.6-1.9 1.1-4.9 1.1z"/></g></g></svg>