<svg version="1.1" id="Layer_1" xmlns="http://www.w3.org/2000/svg" x="0" y="0" viewBox="0 0 100 47" xml:space="preserve"><style>.st0{fill:#dd1f2d}</style><g><path class="st0" d="M89.1 16.9L99.4 1.6c.5-.7 0-1.6-.9-1.6H1C.5 0 0 .5 0 1v32.2c0 .6.5 1 1 1h30.7v11c0 .6.5 1 1 1h14c.6 0 1-.5 1-1V34.3H99c.8 0 1.3-.9.9-1.6L89.1 16.9zM29.6 30.4h-8.2V15.7c0-2.9-.9-4.6-4.2-4.6-3.2 0-4.9 1.6-4.9 5.2v14h-8V3.9h8.2v3c1.9-2.4 4.4-3.6 7.6-3.6 6 0 9.6 4.1 9.6 10.5v16.6zm21.7.6c-3.4 0-5.8-1.4-7.5-3.5v14.8h-8.2V3.9h8.2v3c1.7-2.2 4.2-3.6 7.5-3.6 6.6 0 11.9 5.6 11.9 13.8 0 8.2-5.1 13.9-11.9 13.9zM79 23.1l-4.2 7.3H65l9.2-13.7-8.8-12.8h9.7l4.1 6.7L83 3.9h9.8l-8.7 13 9.1 13.4h-9.7L79 23.1z"/><path class="st0" d="M49.4 11.1c-3.2 0-5.6 2.4-5.6 6.1 0 3.7 2.4 6.1 5.6 6.1 3.1 0 5.6-2.4 5.6-6.1 0-3.7-2.4-6.1-5.6-6.1z"/></g></svg>