<svg version="1.1" id="Layer_1" xmlns="http://www.w3.org/2000/svg" x="0" y="0" viewBox="0 0 66 66" xml:space="preserve"><style>.st2{fill:#b28aff}</style><circle cx="32.6" cy="33.4" r="33" opacity=".2" fill="#b28aff"/><circle cx="32.6" cy="33.4" r="26.8" opacity=".3" fill="#b28aff"/><g><circle class="st2" cx="32.8" cy="33.4" r="4.4"/><path class="st2" d="M57.8 33.4c0-3.5-4.2-6.5-10.8-8.3.3-1.1.5-2.2.7-3.2.9-5.2 0-8.9-2.5-10.3-2.5-1.4-6.1-.4-10.2 3-.8.7-1.6 1.4-2.4 2.2-.8-.8-1.6-1.5-2.4-2.2-4.1-3.4-7.7-4.4-10.2-3-2.5 1.4-3.4 5.1-2.5 10.3.2 1 .4 2.1.7 3.2-6.6 1.8-10.8 4.8-10.8 8.3 0 3.5 4.2 6.5 10.8 8.3-.3 1.1-.5 2.2-.7 3.2-.9 5.2 0 8.9 2.5 10.3.7.4 1.5.6 2.4.6 2.9 0 6.5-2.1 10.3-5.8 3.7 3.7 7.4 5.8 10.3 5.8.9 0 1.7-.2 2.4-.6 2.5-1.4 3.4-5.1 2.5-10.3-.2-1-.4-2.1-.7-3.2 6.4-1.8 10.6-4.8 10.6-8.3zM36.2 16c3.4-2.8 6.4-3.9 8.1-2.8 1.7 1 2.3 4.1 1.6 8.5-.2 1-.4 2-.7 3.1-2.1-.5-4.5-.8-7-1.1-1.4-2-2.9-3.9-4.4-5.5.8-.9 1.6-1.6 2.4-2.2zm3.5 21.5c-.8 1.4-1.6 2.7-2.5 4-1.5.1-3 .2-4.7.2-1.6 0-3.2-.1-4.7-.2-.8-1.2-1.7-2.6-2.5-4s-1.5-2.7-2.2-4.1c.7-1.4 1.4-2.7 2.2-4.1.8-1.4 1.6-2.7 2.5-4 1.5-.1 3-.2 4.7-.2 1.6 0 3.2.1 4.7.2.9 1.3 1.7 2.6 2.5 4s1.5 2.7 2.2 4.1c-.6 1.4-1.4 2.8-2.2 4.1zm3.2-1.9c.7 1.7 1.3 3.3 1.8 4.9-1.6.3-3.3.6-5.1.8.6-.9 1.2-1.9 1.7-2.8.6-1 1.1-2 1.6-2.9zM32.6 47.5c-1.1-1.2-2.2-2.5-3.3-4 1.1.1 2.2.1 3.3.1 1.1 0 2.2 0 3.3-.1-1.1 1.4-2.2 2.8-3.3 4zm-7-6.2c-1.8-.2-3.6-.5-5.1-.8.5-1.6 1.1-3.2 1.8-4.9.5 1 1 1.9 1.6 2.9.5.9 1.1 1.9 1.7 2.8zm-3.3-10c-.7-1.7-1.3-3.3-1.8-4.9 1.6-.3 3.3-.6 5.1-.8-.6.9-1.2 1.9-1.7 2.8-.6 1-1.1 1.9-1.6 2.9zm7-7.9c1.1-1.5 2.2-2.8 3.3-4 1.1 1.2 2.2 2.6 3.3 4-1.1-.1-2.2-.1-3.3-.1-1.1.1-2.2.1-3.3.1zm12 5c-.6-1-1.1-1.9-1.7-2.8 1.8.2 3.6.5 5.1.8-.5 1.6-1.1 3.2-1.8 4.9-.5-1-1-1.9-1.6-2.9zm-22-6.8c-.7-4.4-.1-7.5 1.6-8.5.4-.3.9-.4 1.5-.4 1.7 0 4 1.1 6.6 3.2.8.6 1.5 1.3 2.3 2.1-1.5 1.6-3 3.5-4.4 5.5-2.5.2-4.8.6-7 1.1l-.6-3zM9.2 33.4c0-2.4 3.5-5 9.5-6.6.7 2.1 1.5 4.3 2.6 6.6-1 2.2-1.9 4.5-2.6 6.6-6-1.6-9.5-4.1-9.5-6.6zm11.7 20.3c-1.7-1-2.3-4.1-1.6-8.5.2-1 .4-2 .7-3.1 2.1.5 4.5.8 7 1.1 1.4 2.1 2.9 3.9 4.4 5.5-4.4 4.4-8.4 6.2-10.5 5zm25-8.5c.7 4.4.1 7.5-1.6 8.5-.4.3-.9.4-1.5.4-2.2 0-5.5-1.8-8.9-5.3 1.5-1.6 3-3.5 4.4-5.5 2.5-.2 4.8-.6 7-1.1.2 1 .4 2.1.6 3zm.6-5.2c-.7-2.1-1.5-4.3-2.6-6.6 1-2.2 1.9-4.5 2.6-6.6 6 1.6 9.5 4.1 9.5 6.6s-3.5 5-9.5 6.6z"/></g></svg>