<svg version="1.1" id="Layer_1" xmlns="http://www.w3.org/2000/svg" x="0" y="0" viewBox="0 0 630 302" xml:space="preserve"><style>.st0{opacity:.2;fill:#a399ff}.st2{fill:#b28aff}.st3{fill:#fff}.st14{opacity:.2}.st15{fill:#a399ff}.st18{fill:#efcc3c}.st19{fill:#996feb}.st20{fill:#6f50bc}.st21{fill:#f98f6d}</style><g><g><path class="st0" d="M57.8 0c7.8 39.4 33.1 84.7 107.6 78.1C286.7 67.4 285 165.7 426 165.7c79.7 0 147.8-64.5 167.8-165.7h-536z"/></g><g opacity=".25"><path class="st2" d="M557.8 16.5c-1.1-.2-2.2-.4-3.2-.6-.8-5.5-2.3-10.9-4.4-15.9H432.6c-1.2 2.9-2.3 5.9-3.1 9.1-.1.4-.2.9-.3 1.3-1 .1-2.1.2-3.2.3-4.3.5-9.1 1.5-13 2.6-.3 2.7-.6 5.3-.8 8 0 2.7 0 5.3.1 8 3.8 1.4 8.5 2.9 12.7 3.8 1.1.2 2.2.4 3.2.6.8 5.6 2.3 11 4.5 16.1-.8.6-1.6 1.4-2.4 2.1-3.3 2.9-6.4 6.6-8.9 9.7l1.9 3.5c.7 1.1 1.4 2.2 2.2 3.4l2.2 3.3 2.5 3.1c3.9-1.1 8.4-2.5 12.4-4.4 1-.5 2-.9 2.9-1.4 3.8 4 8.2 7.5 13.1 10.4-.3 1-.5 2-.7 3.1-.8 4.2-1.3 9.1-1.5 13.2 2.4 1.2 4.9 2.1 7.3 3.2 2.5.9 5.1 1.6 7.6 2.4 2.5-3.1 5.4-7.2 7.5-10.9.6-1 1.1-1.9 1.5-2.8 5.6 1 11.2 1.2 16.7.8.4.9.8 1.9 1.3 2.9 1.8 3.9 4.3 8.3 6.5 11.5 5.3-.9 10.4-2.3 15.4-4.3.2-4 .1-8.9-.3-13.2-.1-1.1-.3-2.2-.5-3.2 5-2.4 9.7-5.5 13.9-9.2.9.6 1.8 1.1 2.8 1.7 3.7 2.1 8.2 4 12 5.4 3.7-3.8 7.1-8 10-12.5-2.1-3.3-5.2-7.3-8.1-10.5-.7-.8-1.5-1.6-2.2-2.3 2.4-4.4 4.2-9.2 5.5-14.3.1-.4.2-.9.3-1.3 1-.1 2.1-.2 3.2-.3 4.3-.5 9.1-1.5 13-2.6.3-2.7.6-5.3.8-8 0-2.7 0-5.3-.1-8-3.8-1.4-8.6-2.9-12.7-3.8z"/></g><g><path class="st3" d="M479.3 190.3h-26.4c-2.3 0-4.2-1.9-4.2-4.2v-54.9c0-2.3 1.9-4.2 4.2-4.2h26.4c2.3 0 4.2 1.9 4.2 4.2v54.9c0 2.3-1.9 4.2-4.2 4.2z"/><path opacity=".25" fill="#b28aff" d="M450.5 133.3h31.2v48.6h-31.2z"/></g><g><path d="M407.9 9.6H221.8c-2 0-3.6 1.6-3.6 3.6v98.4c0 2 1.6 3.6 3.6 3.6h186.1c2 0 3.6-1.6 3.6-3.6V13.2c0-1.9-1.6-3.6-3.6-3.6zm-3 91.5c0 1.8-1.5 3.4-3.4 3.4H228.1c-1.8 0-3.4-1.5-3.4-3.4V18.4c0-1.8 1.5-3.4 3.4-3.4h173.4c1.8 0 3.4 1.5 3.4 3.4v82.7z" opacity=".41" fill="#b28aff"/><g opacity=".24"><path class="st2" d="M322.6 24v34.4h-91.8V24zm10.8 34.4V24h64.8v34.4h-51.4zM230.8 68.8h55.7v24h-55.7zm126.8 0h40.6v24h-40.6zm-60.3 0h49.5v24h-49.5z"/></g><g opacity=".17"><path class="st3" d="M304.5 15l-55.2 89.4h14.8L319.3 15zm66.4 0l-55.3 89.4h14.8L385.7 15z"/></g></g><path class="st3" d="M316.6 138.5h-51.4c-2.3 0-4.2-1.9-4.2-4.2v-75c0-2.3 1.9-4.2 4.2-4.2h51.4c2.3 0 4.2 1.9 4.2 4.2v75c0 2.4-1.9 4.2-4.2 4.2z"/><path opacity=".17" fill="#b28aff" d="M265 60.4h51.9v68.8H265z"/><g opacity=".29"><path d="M297.4 66.6h14.9v28.5h-14.9zm-12.6 33.1h10.9v23.2h-10.9zm-15.1-33.1h23v28.5h-23zm0 33.1h10.5v23.2h-10.5zm30.8 0h11.7v23.2h-11.7z" opacity=".45" fill="#b28aff"/></g><path d="M464.7 133.3l-14.2 23.1v10.5l20.6-33.6zm17 .9L452.2 182h6.5l23-37.3z" opacity=".22" fill="#fff"/><g opacity=".3"><path d="M282.7 60.4L265 88.1v15.5l27.6-43.2zm34.2 0h-2.6l-44 68.8h9.9l36.7-57.4z" opacity=".3" fill="#fff"/></g><g class="st14"><path class="st15" d="M283.9 202.1H119.5V167h2.8v32.3h158.8v-60.8h2.8z"/></g><path d="M202 66.1H61c-3 0-5.3 2.4-5.3 5.3v90.2c0 3 2.4 5.3 5.3 5.3h141c3 0 5.3-2.4 5.3-5.3V71.5c.1-3-2.3-5.4-5.3-5.4zm1.9 81.5c0 3-2.4 5.3-5.3 5.3h-134c-3 0-5.3-2.4-5.3-5.3v-73c0-3 2.4-5.3 5.3-5.3h134c3 0 5.3 2.4 5.3 5.3v73z" opacity=".21" fill="#b28aff"/><g opacity=".19"><g><g><path class="st2" d="M137.2 138.1c.4.7.8 1.3 1.2 2 .5.6.9 1.2 1.4 1.8 1.1-.4 2.5-.9 3.6-1.4.3-.1.6-.3.8-.4 1.2 1.1 2.5 2.1 3.9 2.9-.1.3-.1.6-.2.9-.2 1.3-.3 2.7-.3 3.8l1.1.5c.4.1.7.3 1.1.4l1.1.4 1.1.3c.7-.9 1.5-2.1 2.1-3.2.2-.3.3-.6.4-.8 1.6.2 3.2.3 4.9.1.1.3.3.6.4.8.6 1.1 1.3 2.3 2 3.3.8-.2 1.5-.4 2.3-.6.7-.2 1.5-.5 2.2-.8 0-1.2-.1-2.6-.2-3.8 0-.3-.1-.6-.2-.9 1.5-.8 2.8-1.7 4-2.8.3.1.5.3.8.4 1.1.6 2.5 1.1 3.5 1.5 1-1.2 2-2.4 2.8-3.7-.7-1-1.6-2.1-2.4-3l-.7-.7c.7-1.5 1.2-3 1.6-4.6.3 0 .6-.1.9-.1 1.2-.2 2.6-.5 3.7-.9.2-1.5.2-3.1.1-4.6-1.1-.4-2.5-.8-3.7-1-.3-.1-.6-.1-.9-.1-.2-1.4-.7-2.9-1.3-4.3-.1-.1-.1-.2-.2-.4.2-.2.4-.4.7-.6.9-.9 1.8-2 2.5-2.9-.4-.7-.8-1.3-1.2-2-.5-.6-.9-1.2-1.4-1.8-1.1.4-2.5.9-3.6 1.4-.3.1-.6.3-.8.4-1.2-1.1-2.5-2.1-3.9-2.9.1-.3.1-.6.2-.9.2-1.3.3-2.7.3-3.8l-1.1-.5c-.4-.1-.7-.3-1.1-.4l-1.1-.4-1.1-.3c-.7.9-1.5 2.1-2.1 3.2-.2.3-.3.6-.4.8-1.6-.2-3.2-.3-4.9-.1-.1-.3-.3-.6-.4-.8-.6-1.1-1.3-2.3-2-3.3-.8.2-1.5.4-2.3.6-.7.2-1.5.5-2.2.8 0 1.2.1 2.6.2 3.8 0 .3.1.6.2.9-1.5.8-2.8 1.7-4 2.8-.3-.1-.5-.3-.8-.4-1.1-.6-2.5-1.1-3.5-1.5-1 1.2-2 2.4-2.8 3.7.7 1 1.6 2.1 2.4 3l.7.7c-.7 1.5-1.2 3-1.6 4.6-.3 0-.6.1-.9.1-1.2.2-2.6.5-3.7.9-.2 1.5-.2 3.1-.1 4.6 1.1.4 2.5.8 3.7 1 .3.1.6.1.9.1.2 1.4.7 2.9 1.3 4.3.1.1.1.2.2.4-.2.2-.4.4-.7.6-.9.9-1.8 2-2.5 2.9z"/></g></g></g><g><path class="st18" d="M167.3 89.8c-5.2 0-14.6 17.9-17.5 30.6-1.4 6.2 22.9 18.6 22.9 18.6 4.2 0 3.2-6 3.2-6l-12.3-14.7 13.6-28.4c0-.1-6.2-.1-9.9-.1zm71 34.3c-1.3-.8-11.2-7.3-17.1-11.7-2.8-1.9-18-22.7-23-24.1-2.1-.6-4.5-.2-4.5-.2 0 7.6 1.5 14.2 5.3 19.6l17 14.9c.4.4.9.7 1.4.9 3.2 1.4 15.5 6.9 17.5 7 3.6.2 6.8-4.2 3.4-6.4z"/><path class="st18" d="M177.2 88.3s7.9 22.7 12.7 22.2c4.1-.4 7.9-18.4 3.9-22.4l-16.6.2z"/><path class="st19" d="M197.9 146.9l5.1.1m-.7-9.7l-4.3 9.5-9.2 12.3c-.4.5-.7 1.1-.9 1.7l-1.2 3.3 4.7 65.9c2.2 2.5 3.6 3.2 5.5 2.9 1.3-.3 2.3-2.1 2.3-3.4.7-12 4.2-75.4 4.1-76.5l-1-15.7zm-34.2 9.1l9.1.1"/><path class="st20" d="M185 160.1l6.3 70-1.4-61.9 8-22.5z"/><path class="st19" d="M177.2 146.5l-9-.1-1.3 9.3s-1 26.4-1.4 35.4c-4.3 10.4-3.3 41.8-3.3 41.8 1.5 7.2 8.1 1.5 8.1 1.5s2.8-21.7 8.5-39.1c-.1 0 9.8-34.4 9.8-34.4.2-.6 13-14.7 13-14.7l-24.4.3zm0 0l20.7.4"/><path class="st18" d="M202.9 146l-2-48.9c0-4.8.6-7.9-4.2-8.9-16.6-3.6-29.5 1.6-29.5 1.6l3.9 35.1h-.1l-2.9 20.8c-.6 4.5 4.6 4 6.4 4.7 8.5 3 28.5-2.9 28.4-4.4z"/><path class="st3" d="M236.3 123.1c-4.4-.1-4.2 6.1-4.2 6.1s4.8 3.3 6.5 3.3c3.1.1 8.1-3.5 8.1-3.5 1.6-1.4 5.6-1.4 7.4-1.5.1-2.5-3.8-3.3-6.5-3.4-3.5-.1-3.6-.9-11.3-1z"/><path class="st19" d="M227.7 131.1c0 1 68.9-17.5 68.9-17.5l-66.8 13.9c-1.6.4-2.6 2-2.1 3.6z"/><path class="st3" d="M241.5 121.1c3.1 1.6 6.1.7 6.1.7s0 4.8-8.8 2.3c-.7-.2-6.2 2.5-6.2 2.5.5-.3.6-.3 1.9-2.9l3.4-2.4c1.1-.7 2.5-.8 3.6-.2z"/><g><path class="st21" d="M197.9 63.8c.2 8.6-3.2 10-4.2 16.1-.9 5.9-3.1-15-3.1-15l7.3-1.1z"/><g><path class="st3" d="M195.3 64.1c2.6 3.9 2.1 23.1-2.7 23.7-5.7.7-14.6.4-19.8-15.7-1-3.2-1.3-10.8 8-10.9 9.4 0 14.5 2.9 14.5 2.9z"/></g><path class="st21" d="M199.5 53.8c-1.5 2.7-4.3 1.7-4.3 1.7l-2-2c-.9-.9-2-1.4-3.2-1.5l-6-.5c-3.1.6-5.5 3.1-6 6.2 0 0-8.2.5-8.6 7.7-.4 6.7-1.2 8.4 1.7 12 1.4 1.8 3.2 3.7 4.7 5.2 1.2 1.2 2.8 1.9 4.4 2 .5 0-4.6-8.4-2.7-9 5.7-1.8 2.9-7.2 2.4-8.7l-2.3-4.3 2.1 2c1.9 1.8 4.5 2.9 7.1 3 2.7.1 5.9-.1 8.5-1.3 5.7-2.7 8-13.5 4.2-12.5z"/><path class="st3" d="M179.8 76l-1.7 12.1s-1.3 3.2 4.3 4.8c4.7 1.3 6.4.9 7.7-1 2.4-3.6 2.8-17.1 2.8-17.1L179.8 76z"/><path class="st3" d="M181.7 76.2c.5-1.3-2.5-4.9-3.4-5.2-2.5-.7-2.8 2.8-2.7 5 .1 3.8 4.3 4.8 4.3 4.8l1.8-4.6z"/></g><path class="st3" d="M247.7 127.8c0-2-3-3.5-4.7-3.3-.7.1-4.3 1.5-4.3 1.5-.2.4.8 1.6.8 1.6 1.4.7-4.1 4-.8 4.8 1.4 1.1 9-4.6 9-4.6z"/><path class="st19" d="M162.5 216.8l-1.1 25.5 9.4 5.2 5.8-1.4.2-2.9-6.6-8.8zm28.8 13.3l.5 6.3 10.1 3.1 5.8-1.4.2-2.9-8.7-6.7z"/></g><path d="M128.1 111.9c-.4-.2-.9-.4-1.3-.6.2-2.2.2-4.4-.1-6.7 0-.2-.1-.4-.1-.6l1.2-.6c1.6-.9 3.4-2.1 4.9-3.1-.3-1.1-.6-2.2-1-3.4-.4-1.1-.8-2.2-1.3-3.2-1.8 0-3.9.2-5.8.5-.5.1-.9.2-1.4.3-1.2-2.1-2.7-4.1-4.4-5.8l.6-1.2c.8-1.7 1.5-3.7 2-5.4l-1.3-1.1c-.5-.3-.9-.7-1.4-1l-1.4-1-1.3-1c-1.4 1-3 2.4-4.3 3.8-.3.4-.7.7-.9 1-2.2-1-4.5-1.7-7-2.1-.1-.4-.1-.9-.2-1.4-.3-1.8-.9-3.9-1.5-5.6-1.2-.1-2.3-.1-3.5-.1-1.2 0-2.3.2-3.5.2-.5 1.6-1 3.8-1.3 5.6-.1.5-.1.9-.2 1.4-2.4.5-4.7 1.3-6.9 2.4-.3-.3-.6-.7-1-1-1.3-1.3-3.1-2.7-4.5-3.6-2 1.2-3.9 2.6-5.5 4.2.6 1.7 1.4 3.6 2.2 5.3.2.4.5.9.7 1.2-1.6 1.8-3 3.8-4.2 6-.4-.1-.9-.2-1.4-.2-1.8-.2-4-.3-5.7-.3-.9 2.1-1.6 4.4-2 6.7 1.4 1 3.3 2.1 4.9 3 .4.2.9.4 1.3.6-.2 2.2-.2 4.4.1 6.7 0 .2.1.4.1.6l-1.2.6c-1.6.9-3.4 2.1-4.9 3.1.3 1.1.6 2.2 1 3.4.4 1.1.8 2.2 1.3 3.2 1.8 0 3.9-.2 5.8-.5.5-.1.9-.2 1.4-.3 1.2 2.1 2.7 4.1 4.4 5.8l-.6 1.2c-.8 1.7-1.5 3.7-2 5.4l1.3 1.1c.5.3.9.7 1.4 1l1.4 1 1.5.9c1.4-1 3-2.4 4.3-3.8.3-.4.7-.7.9-1 2.2 1 4.5 1.7 7 2.1.1.4.1.9.2 1.4.3 1.8.9 3.9 1.5 5.6 1.2.1 2.3.1 3.5.1 1.2 0 2.3-.2 3.5-.2.5-1.6 1-3.8 1.3-5.6.1-.5.1-.9.2-1.4 2.4-.5 4.7-1.3 6.9-2.4.3.3.6.7 1 1 1.3 1.3 3.1 2.7 4.5 3.6 2-1.2 3.9-2.6 5.5-4.2-.6-1.7-1.4-3.6-2.2-5.3-.2-.4-.5-.9-.7-1.2 1.6-1.8 3-3.8 4.2-6 .4.1.9.2 1.4.2 1.8.2 4 .3 5.7.3.9-2.1 1.6-4.4 2-6.7-1.5-1-3.4-2.1-5.1-2.9zm-28.9 13.4c-9.5 0-17.2-7.7-17.2-17.2C82 98.7 89.7 91 99.2 91s17.2 7.7 17.2 17.2c0 9.4-7.7 17.1-17.2 17.1z" opacity=".19" fill="#b28aff"/><g class="st14"><path class="st15" d="M462.1 239.6H342.4V115.2h2.8v121.5h114v-46.4h2.9z"/></g><g><path d="M444.7 14.8c6.7-3.3 11.7-8.6 14.7-14.8h-56.9c0 .1.1.1.1.2 7.5 15.7 26.4 22.2 42.1 14.6z" fill="none"/><path class="st3" d="M475.3 6.6c1-2.1 1.8-4.4 2.4-6.6h-18.4c-3 6.2-8 11.5-14.7 14.8-15.7 7.6-34.6 1.1-42.2-14.6 0-.1-.1-.1-.1-.2H384c.7 2.5 1.6 4.9 2.7 7.3.1.3.3.6.5.9-.6.5-1.1 1.1-1.7 1.7-2.3 2.4-4.6 5.3-6.4 7.9 1.1 1.7 2.3 3.4 3.4 5.1 1.3 1.6 2.6 3.2 3.9 4.7 2.9-1 6.4-2.4 9.3-4 .8-.4 1.5-.8 2.1-1.2 3.2 2.9 6.7 5.4 10.5 7.3-.1.8-.3 1.6-.4 2.4-.5 3.3-.6 7-.5 10.1l2.8 1.2c1 .3 1.9.6 2.9.9l2.9.9 3 .6c1.8-2.5 3.7-5.6 5.2-8.6.4-.8.7-1.5 1-2.2 4.2.5 8.5.4 12.8-.2.3.7.7 1.4 1.1 2.2 1.5 2.9 3.7 6 5.5 8.5 2-.5 3.9-1.1 5.9-1.7 1.9-.7 3.8-1.5 5.7-2.3 0-3-.3-6.9-.9-10.1-.1-.8-.3-1.6-.5-2.4 3.8-2.1 7.2-4.7 10.2-7.7.7.4 1.4.7 2.2 1.1 2.9 1.4 6.6 2.8 9.4 3.6 2.6-3.1 5-6.5 7-10-1.9-2.5-4.3-5.3-6.6-7.6-.5-.7-1.1-1.2-1.7-1.8z"/></g><g><path class="st3" d="M342.3 134c-1.4 1.4-2.1 3.3-2.5 5h-2s-3.8-13.2-8-10.1c4.2 6.3 2 11.8 2 11.8l2.3 8.4 7-2 2.8-8.1v-4.4c-.1-.7-1-1.1-1.6-.6z"/><g><path class="st19" d="M387.7 270.4l-2 31.6h-5.5l-10.9-6.8v-5l10.9-4.5z"/><g><path class="st3" d="M377.1 87.9c-9.1.9-12 15.9-9 26.6 3 10.7 18.6 5.2 22.2 3.5 3.6-1.8 2.1-12.7 3-19.5s-12.1-11-16.2-10.6z"/><path class="st19" d="M369.3 81.2c-1.9 2.7-4.8 5.7-5.2 8.9l1 8.5s2.9 11.8 6.6 7.1c3.6-4.6 3.6 10.8 7.3 11.6 5 1.2 13.6 1.3 15.4-.4 0 0 7.9-11 8.1-16.1.2-5.1-4.2-10.9-4.2-10.9l-6.8-5.8-3.4-2.9c-2.6-2.2-6.2-2.9-9.4-1.7l-5.5-.2c-1.6 0-3 .7-3.9 1.9z"/><path class="st3" d="M372.9 101c3.8 2.3 5.8 17 .9 11.8-10.1-10.8-3.1-13.1-.9-11.8z"/></g><g><path d="M405.3 181.9s-.9-5.4-1-20.4c1.7-5 7.6-17.7 7.5-18.9-.3-2.7-3.2-12.1-3.2-12.1s.3-3-7.7-8.3c-5.1-4.6-26.3-4.3-33.4-.2 0 0-7.1 1.7-10.3 12.1-3.2 10.3-8.3 18.9-8.3 18.9l-7.1-9.4s-7.4-1.2-8.3 2.4 5.6 28.5 15.4 28.5c5.1 0 9.2-2.2 14.1-8.4-.4 6.4-.1 16.4-.5 26.1l43.5-5.4-.7-4.9z" fill="#ffad6f"/></g><linearGradient id="SVGID_1_" gradientUnits="userSpaceOnUse" x1="362.296" y1="168.532" x2="373.74" y2="168.532"><stop offset="0" stop-color="#ff8c6f"/><stop offset="1" stop-color="#ff8c6f" stop-opacity="0"/></linearGradient><path fill="url(#SVGID_1_)" d="M363 166l10.7-15.6v36.2l-11.4-7.6z"/><path class="st19" d="M420.1 250.5l-5.6-9.5-2.7-25.4-2.3-16.1H378c2.5 4.8 35.5 81.9 39.6 92.5 1.2 3.2 6-13.9 5.8-19.8.1-.1-2.8-19.6-3.3-21.7z"/><path class="st20" d="M406.4 202.8l-12.8 9.6-15.5-13 32.2 74.6-15.5-55.7z"/><path class="st19" d="M407.1 181.9l-2.3-18.4 1.6-36.9c-1.1-1.2-2.8-2.7-5.4-4.4-1-.9-2.6-1.7-4.6-2.3l1.1 1.1c1.5 1.5 2.4 3.6 2.4 5.7l-.2 32.9c.1 2.8-2 5.2-4.8 5.6l-8.6 1.4c-2.2.3-4.1-1.4-4.1-3.6 0 0-1.9-40.4-5.1-42.9l-1.6-1.3c-2.8.8-5.5 1.9-7.8 3.2l.3.2c3.4 2.7 6.4 28.8 5.3 33.7-1.1 4.9-3 12.8-4.3 17.9-.7 3-3.4 5.1-6.5 5.1-.8 15.6 1 35.3 1.2 39.6.2 6.5 14.7 77 14.7 77s-.6 2.4 7.1 0c.5-7.8 3.9-29.2 3.9-29.2s-1-15.7-1.8-17.9c1.3-14.8 5.7-35.9 5.7-35.9l16.6-13.1-2.8-17.5zM426.6 286l-1.5 13-6.2 1.8-6.8-4.2v-2.9l3.9-3.5 7.5-18.1z"/></g></g><g><path class="st3" d="M147.5 0c0 .1-.1.1-.1.2-11.4 19.5-36.5 26.1-56 14.7C85 11.2 80 6 76.6 0H36.2l.9 3 1.2 3.8 1.5 3.7c4 .1 8.8-.1 13.1-.8 1.1-.2 2.1-.4 3.1-.6 2.6 4.9 5.8 9.4 9.6 13.5-.5.9-1 1.8-1.5 2.8-2 3.8-3.8 8.3-5 12.1 2 1.8 4.1 3.4 6.1 5 2.1 1.5 4.4 2.9 6.6 4.4 3.2-2.3 7.1-5.4 10.2-8.4.8-.8 1.5-1.5 2.2-2.3 5.1 2.5 10.4 4.3 15.7 5.3.1 1 .2 2.1.4 3.1.6 4.2 1.8 9.1 3 12.8 5.3.6 10.6.6 15.9.1 1.3-3.8 2.6-8.5 3.3-12.6.2-1.1.3-2.2.5-3.2 5.5-1 3.3-2.6 8.3-5 .7.8 8.9 1.6 9.7 2.4 3 3 6.7 6.1 9.9 8.5 4.6-2.6 8.9-5.7 12.9-9.2-1.1-3.7-2.9-8.4-4.8-12.2-.5-1-1-1.9-1.5-2.8 3.5-3.6 6.6-7.6 9.2-12.1.2-.4.4-.8.7-1.2 1 .2 2 .4 3.1.6 4.2.7 9.1 1 13.1 1.1 1-2.5 2-4.9 2.9-7.4.4-1.5.9-3.1 1.3-4.6h-40.3z"/></g><path class="st0" d="M298.8 221.2v-82.7H296v82.7c-.7.5-1.1 1.2-1.1 2.1 0 1.4 1.1 2.5 2.5 2.5s2.5-1.1 2.5-2.5c0-.9-.5-1.6-1.1-2.1zm176.3 32v-62.9h-2.8v62.9c-.7.5-1.1 1.2-1.1 2.1 0 1.4 1.1 2.5 2.5 2.5s2.5-1.1 2.5-2.5c0-.9-.5-1.7-1.1-2.1z"/></g></svg>