<svg xmlns="http://www.w3.org/2000/svg" viewBox="0 0 142 71"><g><g><g><path d="M51.7 30V18.8h-21V30H11.8c1 6.2 2 11.7 2 11.7h53.6s.9-5.5 2-11.7H51.7z" fill="#dd002a"/><g><path d="M69.3 30c1.3-7.8 2.8-15.7 2.8-15.7C67.8 4 53.2.5 40.5.5S13.2 4 9 14.3c0 0 1.5 7.9 2.8 15.7h21.1c-.5 1.1-.7 2.2-.7 3.4 0 4.6 3.8 8.4 8.4 8.4S49 38 49 33.4c0-1.2-.3-2.4-.7-3.4h21zM40.6 40.8c-4 0-7.3-3.3-7.3-7.3s3.3-7.3 7.3-7.3 7.3 3.3 7.3 7.3-3.3 7.3-7.3 7.3z"/><path d="M40.6 27c-3.5 0-6.4 2.9-6.4 6.4 0 3.5 2.9 6.4 6.4 6.4 3.5 0 6.4-2.9 6.4-6.4 0-3.5-2.9-6.4-6.4-6.4zm0 11.8c-2.9 0-5.3-2.4-5.3-5.3s2.4-5.3 5.3-5.3 5.3 2.4 5.3 5.3-2.4 5.3-5.3 5.3z"/><circle cx="40.6" cy="33.5" r="1.5"/><path d="M41.2 29h-.6c-.3 0-.5 0-.8.1l.7 2.2.7-2.3zm-1.7.1c-.4.1-.9.3-1.2.5l1.4 1.8-.2-2.3zm-1.5.7c-.4.3-.7.6-.9.9l1.9 1.1-1-2zM36.8 31c-.2.4-.4.7-.5 1.2l2.1.3-1.6-1.5zm-.6 1.5c-.1.3-.1.6-.1 1v.3l2.1-.4-2-.9zm-.1 1.6c.1.4.2.8.4 1.2l1.8-1.1-2.2-.1zm.5 1.6c.2.4.5.7.7 1l1.2-1.7-1.9.7zm1.1 1.2c.3.3.7.5 1 .7l.5-2-1.5 1.3zm1.4.8c.4.1.8.2 1.2.2l-.2-2.1-1 1.9zm1.6.3c.4 0 .9-.1 1.3-.2l-1-1.9-.3 2.1zm1.6-.3c.4-.2.8-.4 1.1-.7l-1.7-1.5.6 2.2zm1.4-.9c.3-.3.6-.6.8-1l-2.1-.8 1.3 1.8zm1-1.4c.2-.4.3-.8.4-1.3h-2.3l1.9 1.3zm.4-1.6v-.4c0-.3 0-.7-.1-1l-2.2.9 2.3.5zm-2.5-1.3l2.3-.4c-.1-.4-.3-.9-.6-1.2l-1.7 1.6zm1.5-1.9c-.3-.4-.6-.7-1-.9l-1 2.1 2-1.2zM41.5 29l-.2 2.3 1.5-1.8c-.4-.2-.8-.4-1.3-.5z"/></g><path d="M40.7 41.5H3.8l2 6.4h69.8l2-6.4z"/></g><path d="M40.7 56C37 50.4 20 50.3 13.1 67.6c13.1 7.7 26.3-1.1 27.6-11 1.4 9.9 14.6 18.7 27.6 11C61.4 50.3 44.4 50.4 40.7 56z" fill="#4e1907"/></g><path d="M100.1 26.7v2.9h3.3l-5.7 6.5-5.7-6.5h3.5v-2.9H84.1v2.9h4l8.2 9.2v6h-3.8v2.8h10.4v-2.8h-3.8v-6l8.1-9.2h4.3v-2.9zm27.2-.4c-.8 0-1.5-.1-2.1-.1-.7 0-1.4 0-2.1.1-6.4.3-10.9 4.9-10.9 10.9s4.5 10.6 10.9 10.9c.8 0 1.5.1 2.1.1.7 0 1.4 0 2.1-.1 6.4-.3 10.9-4.9 10.9-10.9s-4.5-10.6-10.9-10.9zm-.6 18.9h-3.2c-4.9-.2-8.3-3.6-8.3-8s3.4-7.8 8.3-8h3.2c4.9.2 8.3 3.6 8.3 8s-3.4 7.8-8.3 8z" fill="#050505"/></g></svg>